<?xml version="1.0" encoding="UTF-8"?>
<svg width="24px" height="24px" viewBox="0 0 24 24" version="1.1" xmlns="http://www.w3.org/2000/svg" xmlns:xlink="http://www.w3.org/1999/xlink">
    <title>Group 61</title>
    <g id="01--Login+home" stroke="none" stroke-width="1" fill="none" fill-rule="evenodd">
        <g id="Group-61">
            <rect id="Rectangle" x="0" y="0" width="24" height="24"></rect>
            <g id="areas" transform="translate(2.000000, 3.000000)" stroke="#787878">
                <path d="M17,0.85 L5.85,1 L6,12.15 L17.15,12 L17,0.85 Z" id="Path" stroke-width="1.7"></path>
                <path d="M0.666666667,13 C0.298476833,13 0,12.7761424 0,12.5 C0,12.2545401 0.235833547,12.0503916 0.54683249,12.0080557 L0.666666667,12 L2,12 L2,1 L0.666666667,1 C0.298476833,1 0,0.776142375 0,0.5 C0,0.254540111 0.235833547,0.0503916296 0.54683249,0.00805566941 L0.666666667,0 L3.33333333,0 C3.70152317,0 4,0.223857625 4,0.5 C4,0.745459889 3.76416645,0.94960837 3.45316751,0.991944331 L3.33333333,1 L3,1 L3,12 L3.33333333,12 C3.70152317,12 4,12.2238576 4,12.5 C4,12.7454599 3.76416645,12.9496084 3.45316751,12.9919443 L3.33333333,13 L0.666666667,13 Z" id="Combined-Shape" stroke-width="0.5" fill="#787878" fill-rule="nonzero"></path>
                <path d="M17.5,17.8333333 C17.5,18.2015232 17.2761424,18.5 17,18.5 C16.7545401,18.5 16.5503916,18.2641665 16.5080557,17.9531675 L16.5,17.8333333 L16.5,16.5 L6.5,16.499 L6.5,17.8333333 C6.5,18.2015232 6.27614237,18.5 6,18.5 C5.75454011,18.5 5.55039163,18.2641665 5.50805567,17.9531675 L5.5,17.8333333 L5.5,15.1666667 C5.5,14.7984768 5.72385763,14.5 6,14.5 C6.24545989,14.5 6.44960837,14.7358335 6.49194433,15.0468325 L6.5,15.1666667 L6.5,15.499 L16.5,15.5 L16.5,15.1666667 C16.5,14.7984768 16.7238576,14.5 17,14.5 C17.2454599,14.5 17.4496084,14.7358335 17.4919443,15.0468325 L17.5,15.1666667 L17.5,17.8333333 Z" id="Combined-Shape" stroke-width="0.5" fill="#787878" fill-rule="nonzero"></path>
            </g>
        </g>
    </g>
</svg>