<?xml version="1.0" encoding="UTF-8"?>
<svg width="13px" height="8px" viewBox="0 0 13 8" version="1.1" xmlns="http://www.w3.org/2000/svg" xmlns:xlink="http://www.w3.org/1999/xlink">
    <title>*Icon/heart-circle-outline Copy 4</title>
    <g id="M_Home_V3" stroke="none" stroke-width="1" fill="none" fill-rule="evenodd">
        <g id="Tìm-kiếm-_3" transform="translate(-336.000000, -253.000000)" fill="#787878">
            <g id="Group" transform="translate(330.000000, 245.000000)">
                <g id="*Icon/heart-circle-outline-Copy-4" transform="translate(12.000000, 12.000000) rotate(-270.000000) translate(-12.000000, -12.000000) ">
                    <path d="M16.5117531,8.27236566 C16.8522101,7.90921145 17.4042001,7.90921145 17.7446572,8.27236566 C18.0567428,8.60525702 18.08275,9.12774454 17.8226786,9.49223527 L17.7446572,9.5874634 L12.6164521,15.0575489 C12.3043664,15.3904402 11.8145344,15.4181812 11.4728243,15.1407717 L11.3835479,15.0575489 L6.25534281,9.5874634 C5.91488573,9.22430919 5.91488573,8.63551987 6.25534281,8.27236566 C6.56742846,7.9394743 7.05726051,7.91173335 7.39897056,8.18914282 L7.48824694,8.27236566 L12,13.0842621 L16.5117531,8.27236566 Z" id="Path" transform="translate(12.000000, 11.664957) rotate(-90.000000) translate(-12.000000, -11.664957) "></path>
                </g>
            </g>
        </g>
    </g>
</svg>