<?xml version="1.0" encoding="UTF-8"?>
<svg width="20px" height="20px" viewBox="0 0 20 20" version="1.1" xmlns="http://www.w3.org/2000/svg" xmlns:xlink="http://www.w3.org/1999/xlink">
    <title>Group</title>
    <g id="01--Login+home" stroke="none" stroke-width="1" fill="none" fill-rule="evenodd">
        <g id="Lá»ctin1" transform="translate(-29.000000, -243.000000)" fill="#787878" fill-rule="nonzero">
            <g id="Group-2-Copy-3" transform="translate(0.000000, 153.000000)">
                <g id="Group-16" transform="translate(29.000000, 87.000000)">
                    <g id="Group-11-Copy" transform="translate(0.000000, 2.000000)">
                        <g id="Outline" transform="translate(0.000000, 1.000000)">
                            <g id="Group">
                                <path d="M18.1818182,1.81818182 L15.4545455,1.81818182 L15.4545455,0 L13.6363636,0 L13.6363636,5.45454545 L15.4545455,5.45454545 L15.4545455,3.63636364 L18.1818182,3.63636364 L18.1818182,17.2727273 L1.81818182,17.2727273 L1.81818182,3.63636364 L3.63636364,3.63636364 L3.63636364,1.81818182 L1.81818182,1.81818182 C0.814545455,1.81818182 0,2.63272727 0,3.63636364 L0,17.2727273 C0,18.2763636 0.814545455,19.0909091 1.81818182,19.0909091 L18.1818182,19.0909091 C19.1854545,19.0909091 20,18.2763636 20,17.2727273 L20,3.63636364 C20,2.63272727 19.1854545,1.81818182 18.1818182,1.81818182 Z" id="Path"></path>
                                <polygon id="Path" points="6.36363636 3.63636364 12.7272727 3.63636364 12.7272727 1.81818182 6.36363636 1.81818182 6.36363636 0 4.54545455 0 4.54545455 5.45454545 6.36363636 5.45454545"></polygon>
                                <rect id="Rectangle" x="3.63636364" y="7.27272727" width="3.63636364" height="3.63636364"></rect>
                                <rect id="Rectangle" x="8.18181818" y="7.27272727" width="3.63636364" height="3.63636364"></rect>
                                <rect id="Rectangle" x="12.7272727" y="7.27272727" width="3.63636364" height="3.63636364"></rect>
                                <rect id="Rectangle" x="3.63636364" y="11.8181818" width="3.63636364" height="3.63636364"></rect>
                                <rect id="Rectangle" x="8.18181818" y="11.8181818" width="3.63636364" height="3.63636364"></rect>
                            </g>
                        </g>
                    </g>
                </g>
            </g>
        </g>
    </g>
</svg>