<svg xmlns="http://www.w3.org/2000/svg" width="24" height="24" viewBox="0 0 24 24">
    <defs>
        <filter id="l7resocf1a">
            <feColorMatrix in="SourceGraphic" values="0 0 0 0 1.000000 0 0 0 0 1.000000 0 0 0 0 1.000000 0 0 0 1.000000 0"/>
        </filter>
    </defs>
    <g fill="none" fill-rule="evenodd">
        <g>
            <g>
                <g filter="url(#l7resocf1a)" transform="translate(-940 -1215) translate(916 1203) translate(24 12)">
                    <g fill="#FFF">
                        <path d="M17.086 2.904C15.22 1.036 12.683-.01 10.042-.002 4.554-.002.086 4.444.083 9.908c-.002 1.741.457 3.45 1.33 4.956L0 19.998l5.279-1.378c1.461.791 3.097 1.206 4.759 1.205h.004c5.488 0 9.955-4.446 9.958-9.91.007-2.633-1.043-5.158-2.914-7.01zm-2.504 9.08c-.249-.125-1.474-.724-1.7-.807-.227-.082-.395-.124-.56.125-.166.248-.643.803-.788.97-.145.168-.29.186-.539.062-.249-.124-1.05-.385-2.001-1.229-.74-.657-1.24-1.467-1.384-1.715-.145-.248-.016-.382.109-.505.112-.112.248-.29.373-.434.124-.145.166-.249.249-.414.082-.165.041-.31-.02-.433-.063-.124-.56-1.343-.768-1.839-.202-.483-.407-.417-.56-.425-.145-.007-.312-.009-.477-.009-.255.007-.495.119-.663.31-.228.248-.871.848-.871 2.066s.893 2.396 1.016 2.562c.123.165 1.754 2.666 4.25 3.739.464.198.937.372 1.419.521.596.189 1.138.162 1.567.098.478-.07 1.473-.599 1.68-1.177.206-.579.207-1.074.145-1.177-.062-.104-.228-.166-.477-.29z" transform="translate(2 2)"/>
                    </g>
                </g>
            </g>
        </g>
    </g>
</svg>
