<svg xmlns="http://www.w3.org/2000/svg" width="25" height="25" viewBox="0 0 25 25">
    <g fill="none" fill-rule="evenodd">
        <g fill="#787878">
            <g>
                <g>
                    <g>
                        <path d="M17.512 9.272c.34-.363.892-.363 1.233 0 .312.333.338.856.078 1.22l-.078.095-5.129 5.47c-.312.333-.801.361-1.143.084l-.09-.083-5.128-5.47c-.34-.364-.34-.952 0-1.316.312-.333.802-.36 1.144-.083l.09.083L13 14.084l4.512-4.812z" transform="translate(-844 -2503) translate(173 967) translate(1 1532) matrix(0 -1 -1 0 695 29) rotate(-90 13 12.665)"/>
                    </g>
                </g>
            </g>
        </g>
    </g>
</svg>
