<?xml version="1.0" encoding="UTF-8"?>
<svg width="18px" height="18px" viewBox="0 0 18 18" version="1.1" xmlns="http://www.w3.org/2000/svg" xmlns:xlink="http://www.w3.org/1999/xlink">
    <title>*Icon/ Close</title>
    <g id="Symbols" stroke="none" stroke-width="1" fill="none" fill-rule="evenodd">
        <g id="*Icon/-Close" transform="translate(-3.000000, -3.000000)" fill="#787878" fill-rule="nonzero">
            <g id="Rectangle" transform="translate(3.000000, 3.000000)">
                <g id="Mask">
                    <path d="M16.773398,1.22660196 C17.1720583,1.62526217 17.1986356,2.25510504 16.8531301,2.68458961 L16.773398,2.77339804 L10.54725,9.00025 L16.773398,15.226602 C17.200534,15.6537379 17.200534,16.3462621 16.773398,16.773398 C16.3747378,17.1720583 15.744895,17.1986356 15.3154104,16.8531301 L15.226602,16.773398 L9.00025,10.54725 L2.77339804,16.773398 C2.3462621,17.200534 1.6537379,17.200534 1.22660196,16.773398 C0.827941744,16.3747378 0.801364396,15.744895 1.14686992,15.3154104 L1.22660196,15.226602 L7.45325,9.00025 L1.22660196,2.77339804 C0.799466014,2.3462621 0.799466014,1.6537379 1.22660196,1.22660196 C1.62526217,0.827941744 2.25510504,0.801364396 2.68458961,1.14686992 L2.77339804,1.22660196 L9.00025,7.45325 L15.226602,1.22660196 C15.6537379,0.799466014 16.3462621,0.799466014 16.773398,1.22660196 Z" id="*Icon/-Close"></path>
                </g>
            </g>
        </g>
    </g>
</svg>