<?xml version="1.0" encoding="UTF-8"?>
<svg width="20px" height="20px" viewBox="0 0 20 20" version="1.1" xmlns="http://www.w3.org/2000/svg" xmlns:xlink="http://www.w3.org/1999/xlink">
    <title>icon compass</title>
    <g id="01--Login+home" stroke="none" stroke-width="1" fill="none" fill-rule="evenodd">
        <g id="Land-size/icon-compass" transform="translate(-2.000000, -2.000000)" fill="#787878">
            <g id="Group" transform="translate(3.000000, 3.000000)">
                <path d="M9,0 C4.03112915,0 0,4.03112915 0,9 C0,13.9688708 4.03112915,18 9,18 C13.9688708,18 18,13.9688708 18,9 C18,4.03112915 13.9688708,0 9,0 Z M9,1 C13.4165427,1 17,4.58345728 17,9 C17,13.4165427 13.4165427,17 9,17 C4.58345728,17 1,13.4165427 1,9 C1,4.58345728 4.58345728,1 9,1 Z" id="Path" stroke="#787878" stroke-width="0.5" fill-rule="nonzero"></path>
                <path d="M13.4806511,4.02712563 L7.93367413,6.24591644 C7.16380383,6.55379484 6.55379484,7.16380383 6.24591644,7.93367413 L4.02712563,13.4806511 C3.97082767,13.6212989 4.0037858,13.7819655 4.11091014,13.8890899 C4.21803449,13.9962142 4.3787011,14.0291723 4.51934885,13.9728744 L10.0663259,11.7540836 C10.8361962,11.4462052 11.4462052,10.8361962 11.7540836,10.0663259 L13.9728744,4.51934885 C14.0291723,4.3787011 13.9962142,4.21803449 13.8890899,4.11091014 C13.7819655,4.0037858 13.6212989,3.97082767 13.4806511,4.02712563 Z M9,10 C8.44771525,10 8,9.55228475 8,9 C8,8.44771525 8.44771525,8 9,8 C9.55228475,8 10,8.44771525 10,9 C10,9.55228475 9.55228475,10 9,10 Z" id="Shape" fill-rule="nonzero"></path>
            </g>
        </g>
    </g>
</svg>