<svg xmlns="http://www.w3.org/2000/svg" width="16" height="16" viewBox="0 0 16 16">
    <g fill="none" fill-rule="evenodd">
        <g fill="#9A9A9A">
            <g>
                <g>
                    <g>
                        <g>
                            <g>
                                <path d="M12.376.342c.299 0 .541.239.547.536v.558h.547c1.156 0 2.103.896 2.183 2.032l.005.156v9.846c0 1.209-.98 2.188-2.188 2.188H2.53c-1.209 0-2.188-.98-2.188-2.188V3.624c0-1.208.98-2.188 2.188-2.188h.547V.889c0-.302.245-.547.547-.547.298 0 .541.239.547.536v.558h7.658V.889c0-.302.245-.547.547-.547zm1.094 4.034H2.53c-.547 0-1.094.547-1.094 1.094v8c0 .604.49 1.094 1.094 1.094h10.94c.604 0 1.094-.49 1.094-1.094v-8c0-.547-.547-1.094-1.094-1.094zM3.897 11.83c.454 0 .82.367.82.82 0 .454-.366.821-.82.821-.453 0-.82-.367-.82-.82 0-.454.367-.82.82-.82zm2.735 0c.454 0 .821.367.821.82 0 .454-.367.821-.82.821-.454 0-.821-.367-.821-.82 0-.454.367-.82.82-.82zm2.736 0c.453 0 .82.367.82.82 0 .454-.367.821-.82.821-.454 0-.821-.367-.821-.82 0-.454.367-.82.82-.82zm0-2.735c.453 0 .82.367.82.82 0 .454-.367.821-.82.821-.454 0-.821-.367-.821-.82 0-.454.367-.821.82-.821zm2.735 0c.453 0 .82.367.82.82 0 .454-.367.821-.82.821-.454 0-.82-.367-.82-.82 0-.454.366-.821.82-.821zm-8.206 0c.454 0 .82.367.82.82 0 .454-.366.821-.82.821-.453 0-.82-.367-.82-.82 0-.454.367-.821.82-.821zm2.735 0c.454 0 .821.367.821.82 0 .454-.367.821-.82.821-.454 0-.821-.367-.821-.82 0-.454.367-.821.82-.821zm2.736-2.735c.453 0 .82.367.82.82 0 .454-.367.821-.82.821-.454 0-.821-.367-.821-.82 0-.454.367-.821.82-.821zm2.735 0c.453 0 .82.367.82.82 0 .454-.367.821-.82.821-.454 0-.82-.367-.82-.82 0-.454.366-.821.82-.821z" transform="translate(-209 -245) translate(0 94) translate(12 143) translate(187) translate(8 6) translate(2 2)"/>
                            </g>
                        </g>
                    </g>
                </g>
            </g>
        </g>
    </g>
</svg>
