<svg xmlns="http://www.w3.org/2000/svg" width="30" height="30" viewBox="0 0 30 30">
    <g fill="none" fill-rule="evenodd">
        <g fill-rule="nonzero">
            <g>
                <g>
                    <g>
                        <g>
                            <g fill="#F8DFA5">
                                <path d="M8.499 7.285H15.784V19.426000000000002H8.499zM6.071.001H13.356V3.643H6.071zM2.428 13.356L4.857 14.57 4.857 7.285 0 7.285 0 14.57z" transform="translate(-930 -746) translate(150 276) translate(766 286) translate(0 176) translate(15 9) translate(4.25 7.892)"/>
                            </g>
                            <g fill="#AB8843" stroke="#AB8843" stroke-width=".7">
                                <path d="M27.317 26.71h-1.82V9.747l1.463 1.065c.108.079.233.116.357.116.188 0 .372-.086.491-.25.198-.27.138-.65-.134-.847l-2.178-1.584V.608c0-.336-.271-.607-.607-.607h-4.856c-.336 0-.607.271-.607.607V3.83L14.319.117c-.212-.156-.501-.156-.714 0L.25 9.829c-.27.197-.331.576-.134.848.197.271.576.331.848.134l2.678-1.948v5.707H.607c-.335 0-.607.271-.607.607v12.14c0 .336.272.608.607.608h26.711c.335 0 .606-.272.606-.607 0-.336-.271-.607-.607-.607zM4.857 15.785h3.642v5.695l-1.55-.774c-.17-.086-.372-.086-.543 0l-1.55.774v-5.695h0zM12.14 26.71H1.214V15.784h2.428v6.677c0 .211.11.406.289.517.178.111.401.12.59.027l2.157-1.08 2.156 1.079c.086.043.179.064.272.064.11 0 .221-.03.319-.09.179-.111.288-.306.288-.517v-6.677h2.428V26.71zm7.285 0h-6.07V15.784h6.07V26.71zm4.856 0H20.64V15.177c0-.336-.272-.607-.607-.607H4.857V7.98l9.105-6.622 10.32 7.505v17.848zm0-19.348l-3.642-2.65V1.216h3.642v6.148z" transform="translate(-930 -746) translate(150 276) translate(766 286) translate(0 176) translate(15 9)"/>
                                <path d="M9.713 7.892v3.642c0 .336.271.608.607.608h7.284c.336 0 .608-.272.608-.608V7.892c0-.335-.272-.607-.608-.607H10.32c-.336 0-.607.272-.607.607zm1.214.607h6.07v2.428h-6.07V8.5z" transform="translate(-930 -746) translate(150 276) translate(766 286) translate(0 176) translate(15 9)"/>
                            </g>
                        </g>
                    </g>
                </g>
            </g>
        </g>
    </g>
</svg>
