<svg xmlns="http://www.w3.org/2000/svg" width="14" height="14" viewBox="0 0 14 14">
    <g fill="none" fill-rule="evenodd">
        <g fill="#ffffff" fill-rule="nonzero">
            <g>
                <g>
                    <g>
                        <g>
                            <g>
                                <g>
                                    <path d="M8.743 7.904l.068.058L12.15 11.3V8.932c0-.306.229-.558.525-.596l.075-.004c.306 0 .558.229.595.525l.005.075v3.818c0 .306-.229.558-.525.595l-.075.005H8.932c-.332 0-.6-.269-.6-.6 0-.306.229-.558.525-.595l.075-.005 2.37-.001-3.34-3.338c-.234-.235-.234-.615 0-.849.213-.213.546-.232.781-.058zm-3.205.058c.213.213.232.546.058.781l-.058.068L2.2 12.149l2.368.001c.306 0 .558.229.596.525l.004.075c0 .306-.229.558-.525.595l-.075.005H.75c-.306 0-.558-.229-.595-.525L.15 12.75V8.932c0-.332.269-.6.6-.6.306 0 .558.229.595.525l.005.075v2.37l3.34-3.34c.234-.234.614-.234.848 0zM4.568.15c.332 0 .6.269.6.6 0 .306-.229.558-.525.595l-.075.005H2.197l3.34 3.34c.235.234.235.614.001.848-.213.213-.546.232-.781.058l-.068-.058L1.35 2.2v2.368c0 .306-.229.558-.525.596l-.075.004c-.306 0-.558-.229-.595-.525L.15 4.568V.75C.15.444.379.192.675.155L.75.15h3.818zm8.182 0c.306 0 .558.229.595.525l.005.075v3.818c0 .332-.269.6-.6.6-.306 0-.558-.229-.595-.525l-.005-.075V2.196L8.81 5.538c-.234.234-.614.234-.848 0-.213-.213-.232-.546-.058-.781l.058-.068 3.337-3.339H8.932c-.306 0-.558-.229-.596-.525L8.332.75c0-.306.229-.558.525-.595L8.932.15h3.818z" transform="translate(-847 -732) translate(150 224) translate(1 35) translate(23) translate(666 466) translate(5 5) translate(2.25 2.25)"/>
                                </g>
                            </g>
                        </g>
                    </g>
                </g>
            </g>
        </g>
    </g>
</svg>
