<?xml version="1.0" encoding="UTF-8"?>
<svg width="22px" height="15px" viewBox="0 0 22 15" version="1.1" xmlns="http://www.w3.org/2000/svg" xmlns:xlink="http://www.w3.org/1999/xlink">
    <title>*Icon/eye-outline</title>
    <g id="Symbols" stroke="none" stroke-width="1" fill="none" fill-rule="evenodd">
        <g id="*Icon/eye-outline" transform="translate(-1.000000, -5.000000)" fill="#787878" fill-rule="nonzero">
            <g id="Rectangle" transform="translate(0.400000, 4.200000)">
                <g id="Mask" transform="translate(0.600000, 0.800000)">
                    <path d="M10.9838305,2.48689958e-14 C15.1974565,2.48689958e-14 19.2101066,2.59084074 21.7637085,6.53483571 C22.0785254,7.02398238 22.0785254,7.65195803 21.7651369,8.13887667 C19.2319514,12.105704 15.2421163,14.674567 10.9838305,14.674567 C6.69839173,14.674567 2.7790309,12.1385715 0.236249482,8.15822753 C-0.087931665,7.6564703 -0.0780919857,7.00887363 0.263359767,6.51406051 C3.19746017,2.30823689 7.04511862,2.48689958e-14 10.9838305,2.48689958e-14 Z M10.9838305,1.4902203 C7.56883571,1.4902203 4.15744485,3.53673725 1.4920691,7.35552187 L1.4920691,7.35552187 L1.69509824,7.66549973 C3.91492511,10.9641469 7.15902705,13.054857 10.6553362,13.1785376 L10.6553362,13.1785376 L10.9838305,13.1843467 C14.6889738,13.1843467 18.2315373,10.9034604 20.5083079,7.33702258 L20.5083079,7.33702258 L20.305738,7.03326365 C18.0742679,3.76382631 14.7460335,1.62292458 11.3065755,1.49617519 L11.3065755,1.49617519 Z M10.9993954,2.92985483 C13.433551,2.92985483 15.4068241,4.90312787 15.4068241,7.33728352 C15.4068241,9.77143918 13.433551,11.7447122 10.9993954,11.7447122 C8.56523973,11.7447122 6.59196669,9.77143918 6.59196669,7.33728352 C6.59196669,4.90312787 8.56523973,2.92985483 10.9993954,2.92985483 Z M10.9993954,4.42007514 C9.38826568,4.42007514 8.082187,5.72615382 8.082187,7.33728352 C8.082187,8.94841323 9.38826568,10.2544919 10.9993954,10.2544919 C12.6105251,10.2544919 13.9166038,8.94841323 13.9166038,7.33728352 C13.9166038,5.72615382 12.6105251,4.42007514 10.9993954,4.42007514 Z" id="*Icon/eye-outline"></path>
                </g>
            </g>
        </g>
    </g>
</svg>