<?xml version="1.0" encoding="UTF-8"?>
<svg width="20px" height="18px" viewBox="0 0 20 18" version="1.1" xmlns="http://www.w3.org/2000/svg" xmlns:xlink="http://www.w3.org/1999/xlink">
    <title>Yêu thích- outline</title>
    <g id="Symbols" stroke="none" stroke-width="1" fill="none" fill-rule="evenodd">
        <g id="*Icon/Yêu-thích--outline" transform="translate(-2.000000, -3.000000)" fill="#fff" fill-rule="nonzero">
            <g id="Mask" transform="translate(2.000000, 3.000000)">
                <path d="M14.5,0 C17.585,0 20,2.36893727 20,5.39509522 C20,9.0980924 16.6,12.1242504 11.45,16.7100813 L10,18 L7.15954884,15.4690033 C2.79686317,11.5553873 0,8.75362754 0,5.39509522 C0,2.36893727 2.415,0 5.5,0 C7.24,0 8.91,0.794550387 10,2.04523155 C11.09,0.794550387 12.76,0 14.5,0 Z M14.5,1.85286098 C13.4222956,1.85286098 12.3430072,2.31654235 11.5916139,3.08090281 L11.4357399,3.24923716 L10,4.8966251 L8.56426009,3.24923716 C7.81118495,2.38514827 6.65468329,1.85286098 5.5,1.85286098 C3.45820453,1.85286098 1.88888889,3.39224413 1.88888889,5.39509522 C1.88888889,6.16769667 2.10142286,6.92878064 2.55417547,7.75939802 L2.69831791,8.01514349 C3.58841873,9.54244617 4.96471518,10.9755217 8.54245479,14.1954922 L10,15.4975473 L11.7501746,13.9316635 C15.2073794,10.8091183 16.5103547,9.42159913 17.3747685,7.88760984 L17.4458245,7.75939802 C17.8985771,6.92878064 18.1111111,6.16769667 18.1111111,5.39509522 C18.1111111,3.39224413 16.5417955,1.85286098 14.5,1.85286098 Z" id="Yêu-thích--outline"></path>
            </g>
        </g>
    </g>
</svg>
