<?xml version="1.0" encoding="UTF-8"?>
<svg width="25px" height="25px" viewBox="0 0 25 25" version="1.1" xmlns="http://www.w3.org/2000/svg" xmlns:xlink="http://www.w3.org/1999/xlink">
    <title>Group 63</title>
    <g id="01--Login+home" stroke="none" stroke-width="1" fill="none" fill-rule="evenodd">
        <g id="Group-63" transform="translate(0.353373, 0.563235)">
            <rect id="Rectangle" x="0" y="0" width="24" height="24"></rect>
            <g id="Group-62" transform="translate(2.500000, 0.500000)" fill="#787878" fill-rule="nonzero">
                <path d="M16.2772045,21.7371524 C16.2772045,22.2325581 15.9412963,22.653819 15.4956129,22.653819 C15.101538,22.653819 14.7871933,22.3213836 14.7232219,21.8748088 L14.7232219,21.8748088 L14.7140212,21.7371524 L14.713821,20.652819 L3.51882098,20.652819 L3.51900433,21.7371524 C3.51900433,22.1944499 3.23278667,22.5885709 2.83821108,22.646499 L2.73741266,22.653819 C2.34333779,22.653819 2.02899306,22.3213836 1.96502171,21.8748088 L1.96502171,21.8748088 L1.95582098,21.7371524 L1.95582098,19.0704857 C1.95582098,18.57508 2.29172922,18.153819 2.73741266,18.153819 C3.13148753,18.153819 3.44583226,18.4862545 3.50980361,18.9328293 L3.50980361,18.9328293 L3.51900433,19.0704857 L3.51882098,19.152819 L14.713821,19.152819 L14.7140212,19.0704857 C14.7140212,18.6131881 15.0002389,18.2190671 15.3948144,18.161139 L15.4956129,18.153819 C15.8896877,18.153819 16.2040325,18.4862545 16.2680038,18.9328293 L16.2680038,18.9328293 L16.2772045,19.0704857 Z" id="Combined-Shape"></path>
                <path d="M8.64365819,0.180334291 C8.9042084,-0.0360675872 9.28148169,-0.057707775 9.56542553,0.115417271 L9.65632869,0.180339151 L18.0398603,7.14407582 C18.3568813,7.40742878 18.3884883,7.86306147 18.1108176,8.16326264 C17.9634983,8.32259871 17.7531698,8.41095979 17.5332218,8.41095979 C17.385289,8.41095979 17.2408913,8.3708141 17.1164817,8.29453177 L17.0271794,8.23060706 L16.6286271,7.89874437 L16.6280316,16.2764499 C16.6280316,16.6089312 16.3902122,16.8897423 16.0655826,16.9741105 L15.9657405,16.9933828 L15.8615958,17 L2.43833595,17 C2.04969141,17 1.72954287,16.7272689 1.6788837,16.3744994 L1.67190013,16.2764499 L1.67262713,7.89874437 L1.27276739,8.23050107 C1.01205047,8.44712329 0.639355845,8.46621763 0.359571431,8.30073588 L0.270032132,8.2387569 L0.189061391,8.16321223 C-0.0632414482,7.89031002 -0.0600238394,7.48892172 0.180773575,7.22038778 L0.260122252,7.14407457 L8.64365819,0.180334291 Z M9.15062713,1.68677649 L3.20562713,6.62978248 L3.20562713,15.552461 L15.0956271,15.552461 L15.0956271,6.62513767 L9.15062713,1.68677649 Z" id="Shape"></path>
            </g>
        </g>
    </g>
</svg>