<svg width="96" height="57" viewBox="0 0 96 57" fill="none" xmlns="http://www.w3.org/2000/svg">
<path d="M11.0382 49.1447L10.2764 49.965V51.9962H8.8116V44.8868H10.2764V48.1095L10.921 47.2257L12.7325 44.8868H14.5343L12.0098 48.046L14.6075 51.9962H12.8643L11.0382 49.1447ZM21.5054 51.9962H20.0405V48.9493H17.1841V51.9962H15.7193V44.8868H17.1841V47.7677H20.0405V44.8868H21.5054V51.9962ZM29.1894 48.6027C29.1894 49.3025 29.0657 49.9161 28.8183 50.4435C28.5709 50.9708 28.2161 51.3777 27.7539 51.6642C27.2949 51.9506 26.7675 52.0939 26.1718 52.0939C25.5826 52.0939 25.0569 51.9523 24.5947 51.6691C24.1324 51.3859 23.7744 50.9822 23.5205 50.4581C23.2666 49.9308 23.138 49.3253 23.1347 48.6417V48.2902C23.1347 47.5903 23.26 46.9751 23.5107 46.4445C23.7646 45.9106 24.1211 45.5021 24.58 45.2189C25.0423 44.9324 25.5696 44.7892 26.1621 44.7892C26.7545 44.7892 27.2802 44.9324 27.7392 45.2189C28.2015 45.5021 28.5579 45.9106 28.8086 46.4445C29.0625 46.9751 29.1894 47.5887 29.1894 48.2853V48.6027ZM27.705 48.2804C27.705 47.535 27.5716 46.9685 27.3046 46.5812C27.0377 46.1938 26.6569 46.0001 26.1621 46.0001C25.6705 46.0001 25.2913 46.1922 25.0244 46.5763C24.7574 46.9572 24.6224 47.517 24.6191 48.256V48.6027C24.6191 49.3286 24.7526 49.8917 25.0195 50.2921C25.2864 50.6925 25.6705 50.8927 26.1718 50.8927C26.6634 50.8927 27.041 50.7006 27.3046 50.3165C27.5683 49.9292 27.7018 49.366 27.705 48.6271V48.2804ZM28.0371 44.3497V44.4083H26.914L26.1621 43.7003L25.4101 44.4083H24.3066V44.3302L25.7519 42.9825H26.5722L28.0371 44.3497ZM36.5951 51.9962H35.1303L32.2787 47.3185V51.9962H30.8139V44.8868H32.2787L35.1352 49.5743V44.8868H36.5951V51.9962ZM44.0594 51.0978C43.7957 51.4135 43.423 51.6593 42.9412 51.8351C42.4595 52.0076 41.9256 52.0939 41.3397 52.0939C40.7244 52.0939 40.1841 51.9604 39.7186 51.6935C39.2564 51.4233 38.8983 51.0327 38.6444 50.5216C38.3937 50.0105 38.2651 49.41 38.2586 48.7198V48.2365C38.2586 47.5268 38.3774 46.9132 38.6151 46.3956C38.856 45.8748 39.201 45.4777 39.6502 45.2042C40.1027 44.9275 40.6317 44.7892 41.2371 44.7892C42.0802 44.7892 42.7394 44.991 43.2147 45.3947C43.6899 45.795 43.9715 46.3794 44.0594 47.1476H42.6336C42.5685 46.7407 42.4237 46.4428 42.1991 46.254C41.9777 46.0652 41.6717 45.9708 41.2811 45.9708C40.783 45.9708 40.4038 46.158 40.1434 46.5323C39.883 46.9067 39.7511 47.4633 39.7479 48.2023V48.6564C39.7479 49.4018 39.8895 49.965 40.1727 50.3458C40.4559 50.7267 40.8709 50.9171 41.4178 50.9171C41.9679 50.9171 42.3602 50.7999 42.5946 50.5656V49.34H41.2616V48.2609H44.0594V51.0978ZM54.4421 49.6281C54.3868 50.393 54.1036 50.9952 53.5925 51.4347C53.0847 51.8741 52.4141 52.0939 51.5808 52.0939C50.6693 52.0939 49.9515 51.7879 49.4275 51.1759C48.9066 50.5607 48.6462 49.7176 48.6462 48.6466V48.212C48.6462 47.5284 48.7667 46.9262 49.0075 46.4054C49.2484 45.8846 49.5918 45.4858 50.0378 45.2091C50.487 44.9292 51.0079 44.7892 51.6003 44.7892C52.4206 44.7892 53.0814 45.0089 53.5827 45.4484C54.084 45.8878 54.3737 46.5047 54.4519 47.299H52.987C52.9512 46.84 52.8226 46.5079 52.6013 46.3029C52.3832 46.0945 52.0495 45.9904 51.6003 45.9904C51.112 45.9904 50.7458 46.1661 50.5017 46.5177C50.2608 46.866 50.1371 47.408 50.1306 48.1437V48.6808C50.1306 49.449 50.2461 50.0105 50.4773 50.3654C50.7116 50.7202 51.0795 50.8976 51.5808 50.8976C52.0333 50.8976 52.3702 50.795 52.5915 50.59C52.8161 50.3816 52.9447 50.061 52.9773 49.6281H54.4421ZM61.8039 48.6027C61.8039 49.3025 61.6802 49.9161 61.4328 50.4435C61.1854 50.9708 60.8306 51.3777 60.3683 51.6642C59.9093 51.9506 59.382 52.0939 58.7863 52.0939C58.1971 52.0939 57.6714 51.9523 57.2091 51.6691C56.7469 51.3859 56.3888 50.9822 56.1349 50.4581C55.881 49.9308 55.7524 49.3253 55.7492 48.6417V48.2902C55.7492 47.5903 55.8745 46.9751 56.1252 46.4445C56.3791 45.9106 56.7355 45.5021 57.1945 45.2189C57.6567 44.9324 58.1841 44.7892 58.7765 44.7892C59.369 44.7892 59.8947 44.9324 60.3537 45.2189C60.8159 45.5021 61.1724 45.9106 61.423 46.4445C61.6769 46.9751 61.8039 47.5887 61.8039 48.2853V48.6027ZM60.3195 48.2804C60.3195 47.535 60.186 46.9685 59.9191 46.5812C59.6522 46.1938 59.2713 46.0001 58.7765 46.0001C58.285 46.0001 57.9058 46.1922 57.6388 46.5763C57.3719 46.9572 57.2368 47.517 57.2336 48.256V48.6027C57.2336 49.3286 57.367 49.8917 57.6339 50.2921C57.9009 50.6925 58.285 50.8927 58.7863 50.8927C59.2778 50.8927 59.6554 50.7006 59.9191 50.3165C60.1828 49.9292 60.3162 49.366 60.3195 48.6271V48.2804ZM59.0597 42.9825H60.5978L59.2453 44.4962H58.0978L59.0597 42.9825ZM70.4922 50.5314H67.9239L67.4356 51.9962H65.878L68.5245 44.8868H69.8819L72.543 51.9962H70.9854L70.4922 50.5314ZM68.3194 49.3448H70.0967L69.2032 46.6837L68.3194 49.3448ZM68.6905 44.3058L68.6172 43.6515C68.8549 43.6385 69.0258 43.6092 69.1299 43.5636C69.2373 43.5148 69.2911 43.4383 69.2911 43.3341C69.2911 43.1095 69.0599 42.9972 68.5977 42.9972L68.6319 42.338C69.2439 42.338 69.7045 42.4226 70.0137 42.5919C70.3262 42.7612 70.4825 42.9939 70.4825 43.2902C70.4825 43.4822 70.4157 43.6401 70.2823 43.7638C70.1488 43.8842 69.9714 43.9607 69.75 43.9933V44.3058H68.6905ZM79.5483 51.9962H78.0835L75.2319 47.3185V51.9962H73.7671V44.8868H75.2319L78.0884 49.5743V44.8868H79.5483V51.9962ZM87.1738 51.9962H85.7089V48.9493H82.8525V51.9962H81.3876V44.8868H82.8525V47.7677H85.7089V44.8868H87.1738V51.9962Z" fill="#B0B8BF"/>
<path d="M63.6717 12.8091C64.326 13.3498 63.9367 14.3979 63.0815 14.3979H61.2497C60.7435 14.3979 60.3331 14.8009 60.3331 15.298V25.199C60.3331 26.1932 59.5123 26.9991 58.4998 26.9991H51.1666C50.1541 26.9991 49.3333 26.1932 49.3333 25.199V16.1981C49.3333 15.2039 48.5125 14.3979 47.5 14.3979C46.4875 14.3979 45.6667 15.2039 45.6667 16.1981V25.199C45.6667 26.1932 44.8459 26.9991 43.8334 26.9991H36.5002C35.4877 26.9991 34.6669 26.1932 34.6669 25.199V15.298C34.6669 14.8009 34.2565 14.3979 33.7503 14.3979H31.9185C31.0633 14.3979 30.674 13.3498 31.3283 12.8091L46.3197 0.422748C47.0019 -0.140916 47.9981 -0.140916 48.6803 0.422748L63.6717 12.8091Z" fill="#CCD3D9"/>
<path d="M42.0001 30.5995C42.0001 29.6053 41.1793 28.7993 40.1668 28.7993H36.5002C35.4877 28.7993 34.6669 29.6053 34.6669 30.5995V34.1998C34.6669 35.194 35.4877 36 36.5002 36H40.1668C41.1793 36 42.0001 35.194 42.0001 34.1998V30.5995Z" fill="#CCD3D9"/>
<path d="M49.3333 28.7993C50.3458 28.7993 51.1666 29.6053 51.1666 30.5995V34.1998C51.1666 35.194 50.3458 36 49.3333 36H45.6667C44.6542 36 43.8334 35.194 43.8334 34.1998V30.5995C43.8334 29.6053 44.6542 28.7993 45.6667 28.7993H49.3333Z" fill="#CCD3D9"/>
<path d="M58.4998 28.7993C59.5123 28.7993 60.3331 29.6053 60.3331 30.5995V34.1998C60.3331 35.194 59.5123 36 58.4998 36H54.8332C53.8207 36 52.9999 35.194 52.9999 34.1998V30.5995C52.9999 29.6053 53.8207 28.7993 54.8332 28.7993H58.4998Z" fill="#CCD3D9"/>
</svg>
