<svg width="95" height="88" viewBox="0 0 95 88" fill="none" xmlns="http://www.w3.org/2000/svg">
<path d="M3.7618 80.5743L2.84773 81.5587V83.9962H1.08992V75.465H2.84773V79.3322L3.62117 78.2716L5.795 75.465H7.95711L4.92781 79.256L8.045 83.9962H5.9532L3.7618 80.5743ZM16.2105 83.9962H14.4527V80.34H11.0249V83.9962H9.26711V75.465H11.0249V78.922H14.4527V75.465H16.2105V83.9962ZM25.3193 79.924C25.3193 80.7638 25.1709 81.5001 24.874 82.1329C24.5771 82.7657 24.1513 83.254 23.5966 83.5978C23.0459 83.9415 22.413 84.1134 21.6982 84.1134C20.9912 84.1134 20.3603 83.9435 19.8056 83.6036C19.2509 83.2638 18.8212 82.7794 18.5166 82.1505C18.2119 81.5177 18.0576 80.7911 18.0537 79.9708V79.549C18.0537 78.7091 18.2041 77.9708 18.5048 77.3341C18.8095 76.6935 19.2373 76.2032 19.788 75.8634C20.3427 75.5197 20.9755 75.3478 21.6865 75.3478C22.3974 75.3478 23.0283 75.5197 23.5791 75.8634C24.1337 76.2032 24.5615 76.6935 24.8623 77.3341C25.167 77.9708 25.3193 78.7072 25.3193 79.5431V79.924ZM23.538 79.5372C23.538 78.6427 23.3779 77.963 23.0576 77.4982C22.7373 77.0333 22.2802 76.8009 21.6865 76.8009C21.0966 76.8009 20.6416 77.0314 20.3212 77.4923C20.0009 77.9493 19.8388 78.6212 19.8349 79.5079V79.924C19.8349 80.795 19.9951 81.4708 20.3154 81.9513C20.6357 82.4318 21.0966 82.672 21.6982 82.672C22.288 82.672 22.7412 82.4415 23.0576 81.9806C23.374 81.5157 23.5341 80.84 23.538 79.9532V79.5372ZM23.9365 74.8204V74.8907H22.5888L21.6865 74.0411L20.7841 74.8907H19.4599V74.797L21.1943 73.1798H22.1787L23.9365 74.8204ZM34.0941 83.9962H32.3363L28.9145 78.3829V83.9962H27.1566V75.465H28.9145L32.3422 81.09V75.465H34.0941V83.9962ZM42.9393 82.9181C42.6229 83.297 42.1756 83.5919 41.5975 83.8029C41.0194 84.0099 40.3787 84.1134 39.6756 84.1134C38.9373 84.1134 38.2889 83.9532 37.7303 83.6329C37.1756 83.3087 36.7459 82.84 36.4412 82.2267C36.1405 81.6134 35.9862 80.8927 35.9784 80.0646V79.4845C35.9784 78.6329 36.1209 77.8966 36.4061 77.2755C36.6952 76.6505 37.1092 76.174 37.6483 75.8458C38.1912 75.5138 38.826 75.3478 39.5526 75.3478C40.5643 75.3478 41.3553 75.59 41.9256 76.0743C42.4959 76.5548 42.8338 77.256 42.9393 78.1779H41.2284C41.1502 77.6896 40.9764 77.3322 40.7069 77.1056C40.4412 76.879 40.0741 76.7657 39.6053 76.7657C39.0077 76.7657 38.5526 76.9904 38.2401 77.4396C37.9276 77.8888 37.7694 78.5568 37.7655 79.4435V79.9884C37.7655 80.8829 37.9354 81.5587 38.2752 82.0157C38.6151 82.4728 39.1131 82.7013 39.7694 82.7013C40.4295 82.7013 40.9002 82.5607 41.1815 82.2794V80.8087H39.5819V79.5138H42.9393V82.9181ZM55.1745 81.1544C55.1081 82.0724 54.7683 82.795 54.155 83.3224C53.5456 83.8497 52.7409 84.1134 51.7409 84.1134C50.6472 84.1134 49.7859 83.7462 49.157 83.0118C48.532 82.2736 48.2195 81.2618 48.2195 79.9767V79.4552C48.2195 78.6349 48.364 77.9122 48.653 77.2872C48.9421 76.6622 49.3542 76.1837 49.8894 75.8517C50.4284 75.5157 51.0534 75.3478 51.7644 75.3478C52.7487 75.3478 53.5417 75.6115 54.1433 76.1388C54.7448 76.6661 55.0925 77.4064 55.1862 78.3595H53.4284C53.3855 77.8087 53.2312 77.4103 52.9655 77.1642C52.7038 76.9142 52.3034 76.7892 51.7644 76.7892C51.1784 76.7892 50.739 77.0001 50.446 77.422C50.157 77.84 50.0085 78.4904 50.0007 79.3732V80.0177C50.0007 80.9396 50.1394 81.6134 50.4167 82.0392C50.698 82.465 51.1394 82.6779 51.7409 82.6779C52.2839 82.6779 52.6882 82.5548 52.9538 82.3087C53.2234 82.0587 53.3777 81.674 53.4167 81.1544H55.1745ZM63.8966 79.924C63.8966 80.7638 63.7482 81.5001 63.4513 82.1329C63.1544 82.7657 62.7287 83.254 62.174 83.5978C61.6232 83.9415 60.9904 84.1134 60.2755 84.1134C59.5685 84.1134 58.9377 83.9435 58.383 83.6036C57.8283 83.2638 57.3986 82.7794 57.0939 82.1505C56.7892 81.5177 56.6349 80.7911 56.631 79.9708V79.549C56.631 78.7091 56.7814 77.9708 57.0822 77.3341C57.3869 76.6935 57.8146 76.2032 58.3654 75.8634C58.9201 75.5197 59.5529 75.3478 60.2638 75.3478C60.9748 75.3478 61.6056 75.5197 62.1564 75.8634C62.7111 76.2032 63.1388 76.6935 63.4396 77.3341C63.7443 77.9708 63.8966 78.7072 63.8966 79.5431V79.924ZM62.1154 79.5372C62.1154 78.6427 61.9552 77.963 61.6349 77.4982C61.3146 77.0333 60.8576 76.8009 60.2638 76.8009C59.674 76.8009 59.2189 77.0314 58.8986 77.4923C58.5783 77.9493 58.4162 78.6212 58.4123 79.5079V79.924C58.4123 80.795 58.5724 81.4708 58.8927 81.9513C59.213 82.4318 59.674 82.672 60.2755 82.672C60.8654 82.672 61.3185 82.4415 61.6349 81.9806C61.9513 81.5157 62.1115 80.84 62.1154 79.9532V79.5372ZM60.6037 73.1798H62.4494L60.8263 74.9962H59.4494L60.6037 73.1798ZM74.0987 82.2384H71.0166L70.4307 83.9962H68.5616L71.7373 75.465H73.3662L76.5596 83.9962H74.6905L74.0987 82.2384ZM71.4912 80.8146H73.6241L72.5518 77.6212L71.4912 80.8146ZM71.9366 74.7677L71.8487 73.9825C72.1338 73.9669 72.3389 73.9318 72.4639 73.8771C72.5928 73.8185 72.6573 73.7267 72.6573 73.6017C72.6573 73.3322 72.3799 73.1974 71.8252 73.1974L71.8662 72.4064C72.6006 72.4064 73.1534 72.5079 73.5245 72.7111C73.8995 72.9142 74.087 73.1935 74.087 73.549C74.087 73.7794 74.0069 73.9689 73.8467 74.1173C73.6866 74.2618 73.4737 74.3536 73.208 74.3927V74.7677H71.9366ZM84.854 83.9962H83.0962L79.6743 78.3829V83.9962H77.9165V75.465H79.6743L83.102 81.09V75.465H84.854V83.9962ZM93.8925 83.9962H92.1347V80.34H88.707V83.9962H86.9491V75.465H88.707V78.922H92.1347V75.465H93.8925V83.9962Z" fill="#B0B8BF"/>
<path d="M73.469 21.3486C74.5398 22.2496 73.9027 23.9966 72.5031 23.9966H69.5053C68.6768 23.9966 68.0051 24.6682 68.0051 25.4967V41.9983C68.0051 43.6553 66.6619 44.9986 65.0049 44.9986H53.0037C51.3467 44.9986 50.0034 43.6553 50.0034 41.9983V26.9968C50.0034 25.3398 48.6601 23.9966 47.0031 23.9966C45.3461 23.9966 44.0028 25.3398 44.0028 26.9968V41.9983C44.0028 43.6553 42.6596 44.9986 41.0026 44.9986H29.0014C27.3444 44.9986 26.0011 43.6553 26.0011 41.9983V25.4967C26.0011 24.6682 25.3295 23.9966 24.501 23.9966H21.5031C20.1036 23.9966 19.4664 22.2496 20.5373 21.3486L45.0714 0.70458C46.1879 -0.23486 47.8184 -0.23486 48.9348 0.70458L73.469 21.3486Z" fill="#CCD3D9"/>
<path d="M38.0023 50.9991C38.0023 49.3421 36.659 47.9989 35.002 47.9989H29.0014C27.3444 47.9989 26.0011 49.3421 26.0011 50.9991V56.9997C26.0011 58.6567 27.3444 60 29.0014 60H35.002C36.659 60 38.0023 58.6567 38.0023 56.9997V50.9991Z" fill="#CCD3D9"/>
<path d="M50.0034 47.9989C51.6604 47.9989 53.0037 49.3421 53.0037 50.9991V56.9997C53.0037 58.6567 51.6604 60 50.0034 60H44.0028C42.3458 60 41.0026 58.6567 41.0026 56.9997V50.9991C41.0026 49.3421 42.3458 47.9989 44.0028 47.9989H50.0034Z" fill="#CCD3D9"/>
<path d="M65.0048 47.9989C66.6619 47.9989 68.0051 49.3421 68.0051 50.9991V56.9997C68.0051 58.6567 66.6619 60 65.0048 60H59.0043C57.3473 60 56.004 58.6567 56.004 56.9997V50.9991C56.004 49.3421 57.3473 47.9989 59.0043 47.9989H65.0048Z" fill="#CCD3D9"/>
</svg>
