<svg xmlns="http://www.w3.org/2000/svg" width="32" height="35" viewBox="0 0 32 35">
    <g fill="none" fill-rule="evenodd">
        <g fill-rule="nonzero">
            <g>
                <g>
                    <g>
                        <g>
                            <path fill="#67AE37" d="M8.51 15.66h10.894c1.001 0 1.86-.621 2.212-1.498l2.778 1.39c.144.072.3.108.457.108.187 0 .373-.052.537-.153.301-.186.484-.515.484-.869v-8.17c0-.354-.183-.683-.484-.869-.301-.186-.677-.203-.994-.044l-2.778 1.389c-.333-.829-1.119-1.428-2.05-1.491.116-.321.179-.667.179-1.027 0-1.69-1.375-3.064-3.064-3.064-.574 0-1.11.158-1.57.434C14.452.72 13.266 0 11.915 0 9.85 0 8.17 1.68 8.17 3.745c0 .612.15 1.19.411 1.702h-.07c-1.314 0-2.383 1.069-2.383 2.383v5.447c0 1.314 1.069 2.383 2.383 2.383z" transform="translate(-1107 -745) translate(150 276) translate(766 286) translate(180 176) translate(11 7)"/>
                            <path fill="#FFF" d="M8.17 7.83c0-.188.153-.34.34-.34h10.894c.188 0 .34.152.34.34v5.446c0 .188-.152.341-.34.341H8.511c-.188 0-.34-.153-.34-.34V7.83zM23.83 12.986L21.787 11.965 21.787 9.142 23.83 8.121zM10.213 3.745c0-.939.763-1.702 1.702-1.702.938 0 1.702.763 1.702 1.702 0 .938-.764 1.702-1.702 1.702-.939 0-1.702-.764-1.702-1.702zM16.68 3.404c.564 0 1.022.458 1.022 1.022 0 .563-.458 1.02-1.021 1.02s-1.021-.457-1.021-1.02c0-.564.458-1.022 1.02-1.022z" transform="translate(-1107 -745) translate(150 276) translate(766 286) translate(180 176) translate(11 7)"/>
                            <path fill="#67AE37" d="M28.936 17.838H3.064C1.374 17.838 0 19.213 0 20.902v10.894c0 1.69 1.374 3.064 3.064 3.064h25.872c1.69 0 3.064-1.375 3.064-3.064V20.902c0-1.69-1.374-3.064-3.064-3.064z" transform="translate(-1107 -745) translate(150 276) translate(766 286) translate(180 176) translate(11 7)"/>
                            <path fill="#FEFFFE" d="M29.957 31.796c0 .563-.458 1.021-1.02 1.021H3.063c-.563 0-1.021-.458-1.021-1.021V20.902c0-.563.458-1.021 1.02-1.021h25.873c.563 0 1.021.458 1.021 1.021v10.894z" transform="translate(-1107 -745) translate(150 276) translate(766 286) translate(180 176) translate(11 7)"/>
                            <path fill="#67AE37" d="M8.23 28.726h-.005l-1.357.006v-5.787c0-.564-.458-1.022-1.022-1.022-.564 0-1.021.458-1.021 1.022v6.802c0 .498.358.923.849 1.007.073.013.122.021.883.021.366 0 .899-.002 1.68-.006.563-.003 1.018-.463 1.015-1.027-.003-.562-.46-1.016-1.021-1.016zM11.635 21.923c-.564 0-1.021.458-1.021 1.022v6.808c0 .564.457 1.021 1.021 1.021.564 0 1.021-.457 1.021-1.02v-6.81c0-.563-.457-1.02-1.021-1.02zM26.154 23.966c.564 0 1.021-.457 1.021-1.021 0-.564-.457-1.022-1.021-1.022h-2.87c-.563 0-1.02.458-1.02 1.022v6.808c0 .564.457 1.021 1.02 1.021h2.87c.564 0 1.021-.457 1.021-1.02 0-.565-.457-1.022-1.021-1.022h-1.848V27.37h1.636c.564 0 1.021-.457 1.021-1.021 0-.564-.457-1.021-1.02-1.021h-1.637v-1.362h1.848zM20.202 21.988c-.535-.178-1.113.112-1.29.647l-1.418 4.267-1.49-4.292c-.185-.533-.767-.815-1.3-.63-.532.185-.814.767-.63 1.3l2.328 6.706.003.007c.166.468.61.782 1.107.782h.008c.5-.004.943-.324 1.104-.797l.003-.007 2.223-6.692c.178-.535-.112-1.113-.648-1.291z" transform="translate(-1107 -745) translate(150 276) translate(766 286) translate(180 176) translate(11 7)"/>
                        </g>
                    </g>
                </g>
            </g>
        </g>
    </g>
</svg>
