<svg xmlns="http://www.w3.org/2000/svg" xmlns:xlink="http://www.w3.org/1999/xlink" width="16" height="13" viewBox="0 0 16 13">
    <defs>
        <filter id="32573c1ada">
            <feColorMatrix in="SourceGraphic" values="0 0 0 0 0.470588 0 0 0 0 0.470588 0 0 0 0 0.470588 0 0 0 1.000000 0"/>
        </filter>
        <path id="ho9tuua69b" d="M11.684 0c.415 0 .75.336.75.75v4.5h2.307c.207 0 .375.168.375.375v6.75c0 .207-.168.375-.375.375H1.158c-.208 0-.375-.168-.375-.375v-6.75c0-.207.167-.375.375-.375h2.276V.75c0-.414.336-.75.75-.75h7.5zm-.375 1.125h-6.75v10.5h1.655v-3c0-.285.211-.52.486-.557l.076-.005h2.328c.285 0 .52.211.557.486l.005.076v3h1.643v-10.5zm2.681 5.25h-1.5v5.25h1.5v-5.25zm-10.583 0h-1.5v5.25h1.5v-5.25zm5.134 2.813H7.338v2.437h1.203V9.187zm.563-4.126c.31 0 .562.252.562.563 0 .285-.211.52-.486.557l-.076.005H6.776c-.31 0-.562-.251-.562-.562 0-.285.211-.52.486-.557l.076-.005h2.328zM8.53 2.438c.31 0 .563.252.563.563 0 .285-.212.52-.487.557l-.076.006H7.424c-.31 0-.562-.252-.562-.563 0-.285.211-.52.486-.557l.076-.006h1.107z"/>
    </defs>
    <g fill="none" fill-rule="evenodd">
        <g fill="#787878">
            <g>
                <g>
                    <g>
                        <g>
                            <g transform="translate(-224 -1844) translate(72 1452) translate(0 100) translate(12 215) translate(1 30) translate(139)">
                                <g transform="translate(0 47)">
                                    <use fill="#787878" xlink:href="#ho9tuua69b"/>
                                </g>
                            </g>
                        </g>
                    </g>
                </g>
            </g>
        </g>
    </g>
</svg>
