<?xml version="1.0" encoding="UTF-8"?>
<svg width="16px" height="22px" viewBox="0 0 16 22" version="1.1" xmlns="http://www.w3.org/2000/svg" xmlns:xlink="http://www.w3.org/1999/xlink">
    <title>*Icon/location-outline</title>
    <g id="Symbols" stroke="none" stroke-width="1" fill="none" fill-rule="evenodd">
        <g id="*Icon/location-outline" transform="translate(-4.000000, -1.000000)" fill="#787878" fill-rule="nonzero">
            <g id="Rectangle" transform="translate(4.000000, 1.000000)">
                <g id="Mask">
                    <path d="M7.99543336,0.9 C11.9907907,0.9 15.2386197,4.00096673 15.2386197,7.83067194 C15.2386197,9.6822963 14.4087965,12.0584631 12.7969864,14.968658 C11.9170006,16.5575115 10.861323,18.2036162 9.71540441,19.7998952 L9.20907334,20.4940584 C8.95858961,20.827258 8.58361388,21.0410043 8.17288505,21.0896051 L7.99543336,21.1 C7.56382057,21.1 7.15534775,20.9165086 6.86949538,20.6004025 L6.76824288,20.4757457 L6.70759473,20.3936182 C5.58056715,18.8650654 4.52777885,17.2778023 3.62622168,15.7283717 L3.19385996,14.9671144 C1.58204014,12.0565473 0.75224702,9.68095109 0.75224702,7.83067194 C0.75224702,4.00096673 4.00007607,0.9 7.99543336,0.9 Z M7.99543336,2.86793862 C5.06076424,2.86793862 2.78268852,5.01064108 2.78268852,7.85684039 C2.78268852,9.37660011 3.50226166,11.5317425 4.86347167,14.1538367 L5.0975474,14.5934849 C5.6085351,15.5284006 6.16155777,16.3774723 7.09165415,17.7045499 L7.994,18.989 L9.22304217,17.238941 C9.93884803,16.2073611 10.4086899,15.4754482 10.8430044,14.6879903 L11.127414,14.1552946 C12.4886378,11.5334934 13.2081782,9.37796325 13.2081782,7.85684039 C13.2081782,5.01064108 10.9301025,2.86793862 7.99543336,2.86793862 Z M7.91107055,5.3697479 C9.39620601,5.3697479 10.6001462,6.57368807 10.6001462,8.05882353 C10.6001462,9.54395899 9.39620601,10.7478992 7.91107055,10.7478992 C6.42593509,10.7478992 5.22199492,9.54395899 5.22199492,8.05882353 C5.22199492,6.57368807 6.42593509,5.3697479 7.91107055,5.3697479 Z M7.91107055,6.71428571 C7.16850282,6.71428571 6.56653273,7.3162558 6.56653273,8.05882353 C6.56653273,8.80139126 7.16850282,9.40336134 7.91107055,9.40336134 C8.65363828,9.40336134 9.25560837,8.80139126 9.25560837,8.05882353 C9.25560837,7.3162558 8.65363828,6.71428571 7.91107055,6.71428571 Z" id="*Icon/location-outline"></path>
                </g>
            </g>
        </g>
    </g>
</svg>
