<?xml version="1.0" encoding="UTF-8"?>
<svg width="20px" height="16px" viewBox="0 0 20 16" version="1.1" xmlns="http://www.w3.org/2000/svg" xmlns:xlink="http://www.w3.org/1999/xlink">
    <title>Group 8</title>
    <g id="Symbols" stroke="none" stroke-width="1" fill="none" fill-rule="evenodd">
        <g id="Group-8" fill="#1A4BB7">
            <path d="M16.75,4.156675e-13 C18.2687831,4.156675e-13 19.5,1.23121694 19.5,2.75 L19.5,2.75 L19.5,12.5961538 C19.5,14.1149369 18.2687831,15.3461538 16.75,15.3461538 L16.75,15.3461538 L2.75,15.3461538 C1.23121694,15.3461538 0,14.1149369 0,12.5961538 L0,12.5961538 L0,2.75 C0,1.23121694 1.23121694,4.156675e-13 2.75,4.156675e-13 L2.75,4.156675e-13 Z M16.75,1.5 L2.75,1.5 C2.05964406,1.5 1.5,2.05964406 1.5,2.75 L1.5,2.75 L1.5,12.5961538 C1.5,13.2865098 2.05964406,13.8461538 2.75,13.8461538 L2.75,13.8461538 L16.75,13.8461538 C17.4403559,13.8461538 18,13.2865098 18,12.5961538 L18,12.5961538 L18,2.75 C18,2.05964406 17.4403559,1.5 16.75,1.5 L16.75,1.5 Z M16.5727834,3.05877531 C16.8039675,3.35601203 16.7763059,3.77246058 16.5237157,4.03678325 L16.4412247,4.11124493 L10.2104555,8.95739878 C9.96971514,9.14464125 9.64331569,9.16544597 9.38354,9.01981294 L9.28954454,8.95739878 L3.05877531,4.11124493 C2.73181492,3.8569424 2.67291408,3.3857357 2.92721661,3.05877531 C3.15840072,2.76153859 3.56884449,2.68583869 3.8872102,2.86559283 L3.97968623,2.92721661 L9.75,7.415 L15.5203138,2.92721661 C15.8472742,2.67291408 16.3184809,2.73181492 16.5727834,3.05877531 Z" id="Combined-Shape"></path>
        </g>
    </g>
</svg>