<?xml version="1.0" encoding="UTF-8"?>
<svg width="20px" height="11px" viewBox="0 0 20 11" version="1.1" xmlns="http://www.w3.org/2000/svg" xmlns:xlink="http://www.w3.org/1999/xlink">
    <title>*Icon/videocam-outline</title>
    <g id="Symbols" stroke="none" stroke-width="1" fill="none" fill-rule="evenodd">
        <g id="*Icon/videocam-outline" transform="translate(-2.000000, -6.000000)" fill="#bfbfbf" fill-rule="nonzero">
            <g id="Rectangle" transform="translate(2.000000, 6.000000)">
                <g id="*Icon/videocam-outline">
                    <path d="M10.4457143,0.25 C11.8753362,0.254415682 13.0312986,1.41037804 13.0357143,2.84 L13.0357143,2.84 L13.0357143,8.28786843 C13.0315839,9.7248492 11.8677063,10.8887267 10.4285714,10.8928571 L10.4285714,10.8928571 L3.17655679,10.8928571 C1.73957602,10.8887267 0.575698478,9.7248492 0.57156808,8.28571429 L0.57156808,8.28571429 L0.57156808,2.85498871 C0.575698478,1.41800794 1.73957602,0.254130398 3.17871094,0.25 L3.17871094,0.25 Z M17.6138407,0.92182138 C18.0226022,0.740089859 18.4955544,0.77750069 18.8706611,1.0212367 C19.2457697,1.26497396 19.4720996,1.68194249 19.4720996,2.12928571 L19.4720996,2.12928571 L19.4720996,9.01357143 C19.4720996,9.46091465 19.2457697,9.87788319 18.8706611,10.1216204 C18.4955544,10.3653565 18.0226022,10.4027673 17.6138407,10.2210358 L17.6138407,10.2210358 L17.4868255,10.1490109 L14.5328809,8.06971393 C14.181339,7.82224804 13.9720996,7.41922526 13.9720996,6.98928571 L13.9720996,6.98928571 L13.9720996,4.15357143 C13.9720996,3.72363188 14.181339,3.3206091 14.5328809,3.07314321 L14.5328809,3.07314321 L17.4868255,0.993846212 Z M10.4457143,1.74999691 L3.18086508,1.74999691 C2.56894504,1.75175447 2.07332255,2.24737696 2.07156499,2.85714286 L2.07156499,2.85714286 L2.07156499,8.28356014 C2.07332255,8.89548018 2.56894504,9.39110268 3.17871094,9.39286024 L3.17871094,9.39286024 L10.4264173,9.39286024 C11.0383373,9.39110268 11.5339598,8.89548018 11.5357179,8.28571429 L11.5357179,8.28571429 L11.5357179,2.8423184 C11.5338554,2.23981877 11.0458955,1.75185887 10.4457143,1.74999691 L10.4457143,1.74999691 Z M17.972,2.486 L15.472,4.246 L15.472,6.896 L17.972,8.656 L17.972,2.486 Z"></path>
                </g>
            </g>
        </g>
    </g>
</svg>