<?xml version="1.0" encoding="UTF-8"?>
<svg width="18px" height="16px" viewBox="0 0 18 16" version="1.1" xmlns="http://www.w3.org/2000/svg" xmlns:xlink="http://www.w3.org/1999/xlink">
    <title>Shape</title>
    <g id="M_Home_V3" stroke="none" stroke-width="1" fill="none" fill-rule="evenodd">
        <g id="Detail" transform="translate(-12.000000, -300.000000)" fill="#787878">
            <g id="Group-43" transform="translate(0.000000, 143.000000)">
                <g id="Group-3" transform="translate(5.000000, 59.000000)">
                    <g id="*Icon/image" transform="translate(0.000000, 90.000000)">
                        <path d="M22.4285714,8 L9.57142857,8 C8.15191034,8.00155006 7.00155006,9.15191034 7,10.5714286 L7,20.8571429 C7.00155006,22.2766611 8.15191034,23.4270214 9.57142857,23.4285714 L22.4285714,23.4285714 C23.8480897,23.4270214 24.9984499,22.2766611 25,20.8571429 L25,10.5714286 C24.9984499,9.15191034 23.8480897,8.00155006 22.4285714,8 Z M19.2142857,10.5714286 C20.2794063,10.5714286 21.1428571,11.4348794 21.1428571,12.5 C21.1428571,13.5651206 20.2794063,14.4285714 19.2142857,14.4285714 C18.1491651,14.4285714 17.2857143,13.5651206 17.2857143,12.5 C17.2868216,11.4353384 18.1496241,10.5725359 19.2142857,10.5714286 L19.2142857,10.5714286 Z M9.57142857,22.1428571 C8.86134818,22.1428571 8.28571429,21.5672232 8.28571429,20.8571429 L8.28571429,18.1398661 L12.09625,14.7528125 C12.8593524,14.0760236 14.0172216,14.1094575 14.74,14.8291518 L17.3495982,17.433125 L12.6398661,22.1428571 L9.57142857,22.1428571 Z M23.7142857,20.8571429 C23.7142857,21.5672232 23.1386518,22.1428571 22.4285714,22.1428571 L14.4583482,22.1428571 L19.3368304,17.264375 C20.050065,16.6578286 21.0970637,16.6551109 21.8134375,17.2579464 L23.7142857,18.8417857 L23.7142857,20.8571429 Z" id="Shape"></path>
                    </g>
                </g>
            </g>
        </g>
    </g>
</svg>