<?xml version="1.0" encoding="UTF-8"?>
<svg width="20px" height="19px" viewBox="0 0 20 19" version="1.1" xmlns="http://www.w3.org/2000/svg" xmlns:xlink="http://www.w3.org/1999/xlink">
    <title>icon-road</title>
    <g id="01--Login+home" stroke="none" stroke-width="1" fill="none" fill-rule="evenodd">
        <g id="icon-road" transform="translate(-2.000000, -2.500000)" fill="#787878" stroke="#787878">
            <g id="road" transform="translate(3.000000, 3.000000)">
                <g id="Group-6" transform="translate(0.000000, 0.631579)" fill-rule="nonzero" stroke-width="0.5">
                    <path d="M3.28282828,0.0109548435 C2.95555556,-0.0555958307 2.62828283,0.188423308 2.56691919,0.543360237 L0.0101010101,16.1827687 C-0.0512626263,16.5377056 0.173737374,16.8926425 0.501010101,16.9591932 C0.541919192,16.9591932 0.582828283,16.9591932 0.603282828,16.9591932 C0.889646465,16.9591932 1.15555556,16.7373576 1.21691919,16.4046043 L3.77373737,0.765195818 C3.83510101,0.410258889 3.61010101,0.0775055177 3.28282828,0.0109548435 Z" id="Path"></path>
                    <path d="M15.2691919,0.543360237 C15.2078283,0.188423308 14.9010101,-0.0555958307 14.5532828,0.0109548435 C14.2260101,0.0775055177 14.0010101,0.410258889 14.0623737,0.787379376 L16.6191919,16.4267878 C16.6805556,16.7595412 16.9260101,16.9813768 17.2328283,16.9813768 C17.2737374,16.9813768 17.2941919,16.9813768 17.335101,16.9813768 C17.6623737,16.9148261 17.8873737,16.5820727 17.8260101,16.2049522 L15.2691919,0.543360237 Z" id="Path"></path>
                    <path d="M8.94873737,1.20886698 C8.6010101,1.20886698 8.33510101,1.49725323 8.33510101,1.87437372 L8.33510101,4.75823627 C8.33510101,5.13535676 8.6010101,5.42374301 8.94873737,5.42374301 C9.29646465,5.42374301 9.56237374,5.13535676 9.56237374,4.75823627 L9.56237374,1.87437372 C9.56237374,1.49725323 9.29646465,1.20886698 8.94873737,1.20886698 Z" id="Path"></path>
                    <path d="M8.94873737,6.97659208 C8.6010101,6.97659208 8.33510101,7.26497833 8.33510101,7.64209882 L8.33510101,10.5259614 C8.33510101,10.9030819 8.6010101,11.1914681 8.94873737,11.1914681 C9.29646465,11.1914681 9.56237374,10.9030819 9.56237374,10.5259614 L9.56237374,7.64209882 C9.56237374,7.26497833 9.29646465,6.97659208 8.94873737,6.97659208 Z" id="Path"></path>
                    <path d="M8.94873737,12.7443172 C8.6010101,12.7443172 8.33510101,13.0327034 8.33510101,13.4098239 L8.33510101,16.2936865 C8.33510101,16.670807 8.6010101,16.9591932 8.94873737,16.9591932 C9.29646465,16.9591932 9.56237374,16.670807 9.56237374,16.2936865 L9.56237374,13.4098239 C9.56237374,13.0327034 9.29646465,12.7443172 8.94873737,12.7443172 Z" id="Path"></path>
                </g>
            </g>
        </g>
    </g>
</svg>