<svg width="146" height="90" viewBox="0 0 146 90" fill="none" xmlns="http://www.w3.org/2000/svg">
<path d="M81.5408 40.0303C81.0695 40.0604 80.5972 39.9893 80.1556 39.822C79.7139 39.6547 79.3132 39.3949 78.9803 39.0602L74.4078 34.4624C74.1354 34.1903 73.766 34.0374 73.3808 34.0374C72.9956 34.0374 72.6261 34.1903 72.3537 34.4624L67.725 39.0602C67.3927 39.3948 66.9926 39.6546 66.5516 39.8219C66.1105 39.9892 65.6387 40.0603 65.1679 40.0303C64.334 39.9682 63.5513 39.6046 62.9661 39.0075L58.3269 34.3711C57.7036 33.747 57.3535 32.9012 57.3535 32.0195C57.3535 31.1377 57.7036 30.2919 58.3269 29.6679L71.0734 16.9467C71.3736 16.6466 71.73 16.4085 72.1223 16.2461C72.5146 16.0836 72.935 16 73.3597 16C73.7843 16 74.2047 16.0836 74.597 16.2461C74.9893 16.4085 75.3457 16.6466 75.6459 16.9467L79.1315 20.4161C79.2386 20.1762 79.3971 19.9626 79.5958 19.7905C79.7919 19.6181 80.0227 19.4896 80.2727 19.4138C80.5226 19.3381 80.786 19.3166 81.0449 19.3511C81.4876 19.4155 81.8921 19.6379 82.1836 19.9771C82.4752 20.3162 82.6342 20.7494 82.6312 21.1965V23.9137L88.3784 29.6679C89.0017 30.2919 89.3518 31.1377 89.3518 32.0195C89.3518 32.9012 89.0017 33.747 88.3784 34.3711L87.274 35.4783L85.8671 34.0723L86.975 32.965C87.0979 32.8423 87.1955 32.6965 87.262 32.5361C87.3285 32.3756 87.3628 32.2037 87.3628 32.03C87.3628 31.8563 87.3285 31.6844 87.262 31.5239C87.1955 31.3635 87.0979 31.2177 86.975 31.095L74.3797 18.511C74.1073 18.2388 73.7378 18.0859 73.3526 18.0859C72.9674 18.0859 72.598 18.2388 72.3256 18.511L59.7443 31.0844C59.6214 31.2072 59.5238 31.3529 59.4573 31.5134C59.3908 31.6738 59.3565 31.8458 59.3565 32.0195C59.3565 32.1931 59.3908 32.3651 59.4573 32.5255C59.5238 32.686 59.6214 32.8317 59.7443 32.9545L64.4399 37.6436C64.5624 37.7664 64.7079 37.8638 64.8682 37.9302C65.0284 37.9967 65.2002 38.0309 65.3737 38.0309C65.5472 38.0309 65.719 37.9967 65.8792 37.9302C66.0395 37.8638 66.185 37.7664 66.3075 37.6436L71.0734 32.8771C71.3731 32.5762 71.7294 32.3373 72.1217 32.1743C72.5141 32.0114 72.9348 31.9275 73.3597 31.9275C73.7845 31.9275 74.2052 32.0114 74.5976 32.1743C74.9899 32.3373 75.3462 32.5762 75.6459 32.8771L80.3872 37.6436C80.5188 37.7771 80.6779 37.8804 80.8534 37.9466C81.0288 38.0127 81.2166 38.0401 81.4036 38.0267C81.7388 38.0013 82.053 37.8537 82.2865 37.612L83.3628 36.5363L84.7697 37.9424L83.7145 38.9969C83.1381 39.5918 82.3663 39.9587 81.5408 40.0303Z" fill="#CCCCCC"/>
<path d="M81.542 47.9918C81.072 48.0244 80.6004 47.9562 80.1588 47.7919C79.7172 47.6276 79.3158 47.371 78.9815 47.0393L74.409 42.445C74.1366 42.1728 73.7672 42.0199 73.382 42.0199C72.9968 42.0199 72.6273 42.1728 72.3549 42.445L67.7262 47.0393C67.3925 47.3709 66.9917 47.6275 66.5507 47.7918C66.1097 47.9561 65.6387 48.0243 65.1691 47.9918C64.3352 47.9325 63.5519 47.5699 62.9673 46.9725L58.3281 42.3466C57.705 41.7231 57.355 40.878 57.355 39.9968C57.355 39.1156 57.705 38.2704 58.3281 37.6469L59.436 36.5397L60.8429 37.9457L59.7455 39.0635C59.6227 39.186 59.5252 39.3314 59.4587 39.4916C59.3922 39.6517 59.358 39.8234 59.358 39.9968C59.358 40.1701 59.3922 40.3418 59.4587 40.502C59.5252 40.6621 59.6227 40.8076 59.7455 40.93L64.4059 45.591C64.6413 45.8301 64.9544 45.9772 65.2887 46.0058C65.478 46.0203 65.6682 45.9935 65.8461 45.9273C66.024 45.8612 66.1855 45.7572 66.3193 45.6227L71.0746 40.8703C71.3743 40.5693 71.7306 40.3304 72.1229 40.1675C72.5153 40.0045 72.936 39.9206 73.3609 39.9206C73.7857 39.9206 74.2064 40.0045 74.5988 40.1675C74.9911 40.3304 75.3474 40.5693 75.6471 40.8703L80.3884 45.6227C80.52 45.7561 80.6791 45.8595 80.8546 45.9256C81.03 45.9918 81.2178 46.0191 81.4048 46.0058C81.7392 45.9772 82.0523 45.8301 82.2877 45.591L86.9621 40.93C87.085 40.8076 87.1824 40.6621 87.2489 40.502C87.3154 40.3418 87.3496 40.1701 87.3496 39.9968C87.3496 39.8234 87.3154 39.6517 87.2489 39.4916C87.1824 39.3314 87.085 39.186 86.9621 39.0635L74.409 26.483C74.1366 26.2108 73.7672 26.0579 73.382 26.0579C72.9968 26.0579 72.6273 26.2108 72.3549 26.483L63.3331 35.4781L61.9262 34.0721L71.1063 24.9328C71.406 24.6318 71.7622 24.393 72.1546 24.23C72.5469 24.0671 72.9676 23.9832 73.3925 23.9832C73.8174 23.9832 74.2381 24.0671 74.6304 24.23C75.0228 24.393 75.379 24.6318 75.6787 24.9328L88.3796 37.6469C89.0027 38.2704 89.3527 39.1156 89.3527 39.9968C89.3527 40.878 89.0027 41.7231 88.3796 42.3466L83.7403 46.9865C83.1545 47.578 82.3728 47.9355 81.542 47.9918Z" fill="#CCCCCC"/>
<path d="M18.5293 66.3721L17.3125 67.6367V71H16V61.0469H17.3125V65.9688L21.7354 61.0469H23.3213L19.4043 65.4424L23.6289 71H22.0566L18.5293 66.3721ZM25.8437 64.499C26.4043 63.8109 27.1334 63.4668 28.0312 63.4668C29.5944 63.4668 30.3828 64.3486 30.3965 66.1123V71H29.1318V66.1055C29.1273 65.5723 29.0042 65.1781 28.7627 64.9229C28.5257 64.6676 28.1543 64.54 27.6484 64.54C27.2383 64.54 26.8782 64.6494 26.5683 64.8682C26.2584 65.0869 26.0169 65.374 25.8437 65.7295V71H24.5791V60.5H25.8437V64.499ZM31.9551 67.2334C31.9551 66.5088 32.0963 65.8571 32.3789 65.2783C32.666 64.6995 33.0625 64.2529 33.5683 63.9385C34.0787 63.624 34.6598 63.4668 35.3115 63.4668C36.3187 63.4668 37.1321 63.8154 37.7519 64.5127C38.3763 65.21 38.6885 66.1374 38.6885 67.2949V67.3838C38.6885 68.1038 38.5495 68.751 38.2715 69.3252C37.998 69.8949 37.6038 70.3392 37.0888 70.6582C36.5784 70.9772 35.9905 71.1367 35.3252 71.1367C34.3226 71.1367 33.5091 70.7881 32.8847 70.0908C32.2649 69.3936 31.9551 68.4707 31.9551 67.3223V67.2334ZM33.2265 67.3838C33.2265 68.2041 33.4157 68.8626 33.7939 69.3594C34.1767 69.8561 34.6871 70.1045 35.3252 70.1045C35.9677 70.1045 36.4782 69.8538 36.8564 69.3525C37.2347 68.8467 37.4238 68.1403 37.4238 67.2334C37.4238 66.4222 37.2301 65.766 36.8427 65.2646C36.4599 64.7588 35.9495 64.5059 35.3115 64.5059C34.6871 64.5059 34.1836 64.7542 33.8008 65.251C33.4179 65.7477 33.2265 66.4587 33.2265 67.3838ZM37.3349 62.373V62.4414H36.289L35.2636 61.2793L34.2451 62.4414H33.1992V62.3594L34.8808 60.5H35.6465L37.3349 62.373ZM41.4707 63.6035L41.5117 64.5332C42.0768 63.8223 42.8151 63.4668 43.7265 63.4668C45.2897 63.4668 46.0781 64.3486 46.0918 66.1123V71H44.8271V66.1055C44.8226 65.5723 44.6995 65.1781 44.458 64.9229C44.221 64.6676 43.8496 64.54 43.3437 64.54C42.9336 64.54 42.5735 64.6494 42.2636 64.8682C41.9537 65.0869 41.7122 65.374 41.539 65.7295V71H40.2744V63.6035H41.4707ZM47.6982 67.2402C47.6982 66.0872 47.9648 65.1712 48.498 64.4922C49.0312 63.8086 49.7376 63.4668 50.6172 63.4668C51.5195 63.4668 52.2236 63.7858 52.7295 64.4238L52.791 63.6035H53.9463V70.8223C53.9463 71.7793 53.6614 72.5335 53.0918 73.085C52.5267 73.6364 51.7656 73.9121 50.8086 73.9121C50.2754 73.9121 49.7536 73.7982 49.2431 73.5703C48.7327 73.3424 48.3431 73.0303 48.0742 72.6338L48.7304 71.875C49.2728 72.5449 49.9358 72.8799 50.7197 72.8799C51.3349 72.8799 51.8135 72.7067 52.1552 72.3604C52.5016 72.014 52.6748 71.5264 52.6748 70.8975V70.2617C52.1689 70.8451 51.4785 71.1367 50.6035 71.1367C49.7376 71.1367 49.0358 70.7881 48.498 70.0908C47.9648 69.3936 47.6982 68.4434 47.6982 67.2402ZM48.9697 67.3838C48.9697 68.2178 49.1406 68.874 49.4824 69.3525C49.8242 69.8265 50.3027 70.0635 50.9179 70.0635C51.7155 70.0635 52.3011 69.7012 52.6748 68.9766V65.5996C52.2874 64.8932 51.7064 64.54 50.9316 64.54C50.3164 64.54 49.8356 64.7793 49.4892 65.2578C49.1429 65.7363 48.9697 66.445 48.9697 67.3838ZM62.2998 70.1045C62.7509 70.1045 63.1452 69.9678 63.4824 69.6943C63.8196 69.4209 64.0065 69.0791 64.0429 68.6689H65.2392C65.2164 69.0928 65.0706 69.4961 64.8017 69.8789C64.5329 70.2617 64.1728 70.5671 63.7217 70.7949C63.275 71.0228 62.8011 71.1367 62.2998 71.1367C61.2926 71.1367 60.4905 70.8018 59.8935 70.1318C59.3011 69.4574 59.0049 68.5368 59.0049 67.3701V67.1582C59.0049 66.4382 59.137 65.7979 59.4013 65.2373C59.6657 64.6768 60.0439 64.2415 60.5361 63.9316C61.0329 63.6217 61.6185 63.4668 62.2929 63.4668C63.1224 63.4668 63.8105 63.7152 64.3574 64.2119C64.9088 64.7087 65.2028 65.3535 65.2392 66.1465H64.0429C64.0065 65.668 63.8242 65.276 63.4961 64.9707C63.1725 64.6608 62.7715 64.5059 62.2929 64.5059C61.6504 64.5059 61.1513 64.7383 60.7959 65.2031C60.445 65.6634 60.2695 66.3311 60.2695 67.2061V67.4453C60.2695 68.2975 60.445 68.9538 60.7959 69.4141C61.1468 69.8743 61.6481 70.1045 62.2998 70.1045ZM66.3261 67.2334C66.3261 66.5088 66.4674 65.8571 66.75 65.2783C67.0371 64.6995 67.4336 64.2529 67.9394 63.9385C68.4498 63.624 69.0309 63.4668 69.6826 63.4668C70.6898 63.4668 71.5032 63.8154 72.123 64.5127C72.7474 65.21 73.0595 66.1374 73.0595 67.2949V67.3838C73.0595 68.1038 72.9205 68.751 72.6426 69.3252C72.3691 69.8949 71.9749 70.3392 71.4599 70.6582C70.9495 70.9772 70.3616 71.1367 69.6963 71.1367C68.6937 71.1367 67.8802 70.7881 67.2558 70.0908C66.636 69.3936 66.3261 68.4707 66.3261 67.3223V67.2334ZM67.5976 67.3838C67.5976 68.2041 67.7868 68.8626 68.165 69.3594C68.5478 69.8561 69.0582 70.1045 69.6963 70.1045C70.3388 70.1045 70.8493 69.8538 71.2275 69.3525C71.6058 68.8467 71.7949 68.1403 71.7949 67.2334C71.7949 66.4222 71.6012 65.766 71.2138 65.2646C70.831 64.7588 70.3206 64.5059 69.6826 64.5059C69.0582 64.5059 68.5547 64.7542 68.1718 65.251C67.789 65.7477 67.5976 66.4587 67.5976 67.3838ZM70.2568 60.5H71.7881L69.956 62.5098H68.9375L70.2568 60.5ZM79.3828 64.499C79.9433 63.8109 80.6725 63.4668 81.5703 63.4668C83.1334 63.4668 83.9218 64.3486 83.9355 66.1123V71H82.6709V66.1055C82.6663 65.5723 82.5433 65.1781 82.3017 64.9229C82.0648 64.6676 81.6933 64.54 81.1875 64.54C80.7773 64.54 80.4173 64.6494 80.1074 64.8682C79.7975 65.0869 79.556 65.374 79.3828 65.7295V71H78.1181V60.5H79.3828V64.499ZM87.2031 71H85.9316V63.6035H87.2031V71ZM87.3261 62.5166H86.2392L84.4756 60.5068H86L87.3261 62.5166ZM90.4843 63.6035L90.5254 64.5332C91.0905 63.8223 91.8287 63.4668 92.7402 63.4668C94.3034 63.4668 95.0918 64.3486 95.1054 66.1123V71H93.8408V66.1055C93.8362 65.5723 93.7132 65.1781 93.4717 64.9229C93.2347 64.6676 92.8633 64.54 92.3574 64.54C91.9472 64.54 91.5872 64.6494 91.2773 64.8682C90.9674 65.0869 90.7259 65.374 90.5527 65.7295V71H89.2881V63.6035H90.4843ZM98.2773 64.499C98.8379 63.8109 99.567 63.4668 100.465 63.4668C102.028 63.4668 102.816 64.3486 102.83 66.1123V71H101.565V66.1055C101.561 65.5723 101.438 65.1781 101.196 64.9229C100.959 64.6676 100.588 64.54 100.082 64.54C99.6718 64.54 99.3118 64.6494 99.0019 64.8682C98.692 65.0869 98.4505 65.374 98.2773 65.7295V71H97.0127V60.5H98.2773V64.499ZM112.763 71C112.69 70.8542 112.631 70.5944 112.585 70.2207C111.997 70.8314 111.295 71.1367 110.48 71.1367C109.75 71.1367 109.151 70.9316 108.682 70.5215C108.217 70.1068 107.984 69.5827 107.984 68.9492C107.984 68.179 108.276 67.582 108.859 67.1582C109.447 66.7298 110.272 66.5156 111.334 66.5156H112.564V65.9346C112.564 65.4925 112.432 65.1416 112.168 64.8818C111.904 64.6175 111.514 64.4854 110.999 64.4854C110.548 64.4854 110.17 64.5993 109.864 64.8271C109.559 65.055 109.406 65.3307 109.406 65.6543H108.135C108.135 65.2852 108.265 64.9297 108.524 64.5879C108.789 64.2415 109.144 63.9681 109.591 63.7676C110.042 63.5671 110.536 63.4668 111.074 63.4668C111.926 63.4668 112.594 63.681 113.077 64.1094C113.56 64.5332 113.811 65.1188 113.829 65.8662V69.2705C113.829 69.9495 113.916 70.4896 114.089 70.8906V71H112.763ZM110.664 70.0361C111.061 70.0361 111.437 69.9336 111.792 69.7285C112.147 69.5234 112.405 69.2568 112.564 68.9287V67.4111H111.573C110.024 67.4111 109.249 67.8646 109.249 68.7715C109.249 69.168 109.381 69.4779 109.646 69.7012C109.91 69.9245 110.249 70.0361 110.664 70.0361ZM110.787 62.4072L110.78 61.3613C111.122 61.3385 111.373 61.293 111.532 61.2246C111.692 61.1562 111.772 61.0332 111.772 60.8555C111.772 60.6777 111.667 60.5456 111.457 60.459C111.252 60.3678 110.979 60.3223 110.637 60.3223L110.685 59.5977C111.364 59.5977 111.879 59.7161 112.23 59.9531C112.58 60.1855 112.756 60.4954 112.756 60.8828C112.756 61.1608 112.667 61.391 112.489 61.5732C112.312 61.7555 112.047 61.8717 111.696 61.9219L111.689 62.4072H110.787ZM117.008 63.6035L117.049 64.5332C117.614 63.8223 118.352 63.4668 119.264 63.4668C120.827 63.4668 121.616 64.3486 121.629 66.1123V71H120.365V66.1055C120.36 65.5723 120.237 65.1781 119.995 64.9229C119.758 64.6676 119.387 64.54 118.881 64.54C118.471 64.54 118.111 64.6494 117.801 64.8682C117.491 65.0869 117.25 65.374 117.076 65.7295V71H115.812V63.6035H117.008ZM124.801 64.499C125.362 63.8109 126.091 63.4668 126.989 63.4668C128.552 63.4668 129.34 64.3486 129.354 66.1123V71H128.089V66.1055C128.085 65.5723 127.962 65.1781 127.72 64.9229C127.483 64.6676 127.112 64.54 126.606 64.54C126.196 64.54 125.836 64.6494 125.526 64.8682C125.216 65.0869 124.974 65.374 124.801 65.7295V71H123.536V60.5H124.801V64.499Z" fill="#CCCCCC"/>
</svg>
