<?xml version="1.0" encoding="UTF-8"?>
<svg width="18px" height="20px" viewBox="0 0 18 20" version="1.1" xmlns="http://www.w3.org/2000/svg" xmlns:xlink="http://www.w3.org/1999/xlink">
    <title>Mask Copy</title>
    <defs>
        <filter id="filter-1">
            <feColorMatrix in="SourceGraphic" type="matrix" values="0 0 0 0 0.101961 0 0 0 0 0.294118 0 0 0 0 0.717647 0 0 0 1.000000 0"></feColorMatrix>
        </filter>
    </defs>
    <g id="Symbols" stroke="none" stroke-width="1" fill="none" fill-rule="evenodd">
        <g filter="url(#filter-1)" id="Mask-Copy">
            <g>
                <path d="M16.0833333,5.83333333 C17.1944444,6.91666667 17.75,8.19444444 17.75,9.66666667 C17.75,11.1388889 17.1944444,12.3888889 16.0833333,13.4166667 L15.2083333,12.5 C16.0138889,11.6666667 16.4166667,10.6944444 16.4166667,9.58333333 C16.4166667,8.47222222 16.0138889,7.52777778 15.2083333,6.75 L16.0833333,5.83333333 Z M14.2083333,7.70833333 C14.7638889,8.29166667 15.0416667,8.94444444 15.0416667,9.66666667 C15.0416667,10.3888889 14.7638889,11.0138889 14.2083333,11.5416667 L13.3333333,10.625 C13.8333333,9.95833333 13.8333333,9.27777778 13.3333333,8.58333333 L14.2083333,7.70833333 Z M8.6505927,1.51960819 L8.86730957,1.5201416 L8.86730957,1.5201416 C8.86730957,1.93435516 8.53152313,2.4136556 8.11730957,2.4136556 L4.61730957,2.4136556 C4.20309601,2.4136556 3.86730957,1.93435516 3.86730957,1.5201416 L7.27324939,1.51960819 C7.33221679,1.51958448 7.39040658,1.51956315 7.44766036,1.51954418 L8.56093954,1.51954418 C8.5930799,1.51956315 8.62301709,1.51958448 8.6505927,1.51960819 Z M10.6666667,0.264607747 C11.1666667,0.264607747 11.5902778,0.438218859 11.9375,0.785441081 C12.2847222,1.1326633 12.4583333,1.55627441 12.4583333,2.05627441 L12.4583333,17.7540894 C12.4583333,18.2540894 12.2847222,18.6777005 11.9375,19.0249227 C11.5902778,19.3721449 11.1666667,19.545756 10.6666667,19.545756 L1.79166667,19.545756 C1.29166667,19.545756 0.868055556,19.3721449 0.520833333,19.0249227 C0.173611111,18.6777005 0,18.2540894 0,17.7540894 L0,2.05627441 C0,1.55627441 0.173611111,1.1326633 0.520833333,0.785441081 C0.868055556,0.438218859 1.29166667,0.264607747 1.79166667,0.264607747 L10.6666667,0.264607747 Z M11.1767578,17.1525879 L11.1767578,2.52087402 C11.1767578,1.96858927 10.7290426,1.52087402 10.1767578,1.52087402 L2.27148438,1.52087402 C1.71919963,1.52087402 1.27148438,1.96858927 1.27148438,2.52087402 L1.27148438,17.1525879 C1.27148438,17.7048726 1.71919963,18.1525879 2.27148438,18.1525879 L10.1767578,18.1525879 C10.7290426,18.1525879 11.1767578,17.7048726 11.1767578,17.1525879 Z" id="Icon-Shape" fill="#787878" fill-rule="nonzero"></path>
            </g>
        </g>
    </g>
</svg>