<svg xmlns="http://www.w3.org/2000/svg" width="24" height="24" viewBox="0 0 24 24">
    <g fill="none" fill-rule="evenodd">
        <g fill-rule="nonzero">
            <g>
                <g>
                    <g>
                        <g>
                            <g>
                                <path fill="#1976D2" d="M17.5 0h-15C1.121 0 0 1.121 0 2.5v15C0 18.879 1.121 20 2.5 20h15c1.379 0 2.5-1.121 2.5-2.5v-15C20 1.121 18.879 0 17.5 0z" transform="translate(-43 -477) translate(24 373) translate(16 24) translate(0 78) translate(3 2) translate(2 2)"/>
                                <path fill="#FAFAFA" d="M16.875 10H13.75V7.5c0-.69.56-.625 1.25-.625h1.25V3.75h-2.5C11.679 3.75 10 5.429 10 7.5V10H7.5v3.125H10V20h3.75v-6.875h1.875L16.875 10z" transform="translate(-43 -477) translate(24 373) translate(16 24) translate(0 78) translate(3 2) translate(2 2)"/>
                            </g>
                        </g>
                    </g>
                </g>
            </g>
        </g>
    </g>
</svg>
