<?xml version="1.0" encoding="UTF-8"?>
<svg width="19px" height="20px" viewBox="0 0 19 20" version="1.1" xmlns="http://www.w3.org/2000/svg" xmlns:xlink="http://www.w3.org/1999/xlink">
    <title>*Icon/share-social-outline</title>
    <g id="Symbols" stroke="none" stroke-width="1" fill="none" fill-rule="evenodd">
        <g id="*Icon/share-social-outline" transform="translate(-3.000000, -2.000000)" fill="#787878" fill-rule="nonzero">
            <g id="Rectangle" transform="translate(3.000000, 2.000000)">
                <g id="Mask">
                    <path d="M15.25,0.25 C16.9068542,0.25 18.25,1.59314575 18.25,3.25 C18.25,4.90685425 16.9068542,6.25 15.25,6.25 C14.399876,6.25 13.632341,5.89639442 13.0864523,5.32824057 L6.14993179,9.22874214 C6.2152137,9.47484286 6.25,9.73335904 6.25,10 C6.25,10.266641 6.2152137,10.5251571 6.14993179,10.7712579 L13.0864523,14.6717594 C13.632341,14.1036056 14.399876,13.75 15.25,13.75 C16.9068542,13.75 18.25,15.0931458 18.25,16.75 C18.25,18.4068542 16.9068542,19.75 15.25,19.75 C13.5931458,19.75 12.25,18.4068542 12.25,16.75 C12.25,16.483359 12.2847863,16.2248429 12.3500682,15.9787421 L5.41354774,12.0782406 C4.86765904,12.6463944 4.10012403,13 3.25,13 C1.59314575,13 0.25,11.6568542 0.25,10 C0.25,8.34314575 1.59314575,7 3.25,7 C4.10012403,7 4.86765904,7.35360558 5.41354774,7.92175943 L12.3500682,4.02125786 C12.2847863,3.77515714 12.25,3.51664096 12.25,3.25 C12.25,1.59314575 13.5931458,0.25 15.25,0.25 Z M15.25,15.25 C14.4215729,15.25 13.75,15.9215729 13.75,16.75 C13.75,17.5784271 14.4215729,18.25 15.25,18.25 C16.0784271,18.25 16.75,17.5784271 16.75,16.75 C16.75,15.9215729 16.0784271,15.25 15.25,15.25 Z M3.25,8.5 C2.42157288,8.5 1.75,9.17157288 1.75,10 C1.75,10.8284271 2.42157288,11.5 3.25,11.5 C4.07842712,11.5 4.75,10.8284271 4.75,10 C4.75,9.17157288 4.07842712,8.5 3.25,8.5 Z M15.25,1.75 C14.4215729,1.75 13.75,2.42157288 13.75,3.25 C13.75,4.07842712 14.4215729,4.75 15.25,4.75 C16.0784271,4.75 16.75,4.07842712 16.75,3.25 C16.75,2.42157288 16.0784271,1.75 15.25,1.75 Z" id="*Icon/share-social-outline"></path>
                </g>
            </g>
        </g>
    </g>
</svg>