<svg xmlns="http://www.w3.org/2000/svg" width="24" height="24" viewBox="0 0 24 24">
    <g fill="none" fill-rule="evenodd">
        <g>
            <g>
                <g>
                    <g>
                        <g fill="#63D417" transform="translate(-325 -2022) translate(0 2006) translate(12) translate(313 16)">
                            <circle cx="12" cy="12" r="12" opacity=".4"/>
                            <g>
                                <path d="M10 0C4.486 0 0 4.486 0 10s4.486 10 10 10 10-4.486 10-10S15.514 0 10 0z" transform="translate(2 2)"/>
                            </g>
                        </g>
                        <g fill="#FFF">
                            <g>
                                <g>
                                    <path d="M5.07.053c.169-.07.357-.07.526 0l4.667 2c.245.105.404.347.404.613v2.667c0 3.673-1.356 5.817-5.002 7.912-.102.059-.217.088-.332.088-.114 0-.229-.03-.332-.088C1.356 11.145 0 9.001 0 5.333V2.666c0-.266.159-.508.403-.613zm1.743 4.196L4.717 6.87l-.829-1.24c-.207-.306-.621-.388-.924-.185-.305.204-.39.619-.185.924l1.333 2c.119.177.313.287.527.297h.028c.201 0 .393-.09.521-.25l2.667-3.334c.229-.288.184-.706-.104-.937-.287-.227-.706-.183-.938.104z" transform="translate(-325 -2022) translate(0 2006) translate(12) translate(313 16) translate(6 5) translate(.667 .333)"/>
                                </g>
                            </g>
                        </g>
                    </g>
                </g>
            </g>
        </g>
    </g>
</svg>
