<?xml version="1.0" encoding="UTF-8"?>
<svg width="20px" height="15px" viewBox="0 0 20 15" version="1.1" xmlns="http://www.w3.org/2000/svg" xmlns:xlink="http://www.w3.org/1999/xlink">
    <title>đối tượng đăng tin</title>
    <g id="Symbols" stroke="none" stroke-width="1" fill="none" fill-rule="evenodd">
        <g id="*Icon/-Đối-tương-đăng-tin" transform="translate(-2.000000, -5.000000)" fill="#787878" fill-rule="nonzero">
            <g id="Rectangle" transform="translate(3.000000, 6.000000)">
                <g id="đối-tượng-đăng-tin">
                    <path d="M12.2271715,-0.75 C10.1739114,-0.75 8.68419642,0.838435768 8.83317001,2.93945999 C8.97319005,4.91724308 10.468442,6.52282851 12.2271715,6.52282851 C13.9850559,6.52282851 15.4786289,4.91805678 15.6211124,2.94030703 C15.7712761,0.861040327 14.2717162,-0.75 12.2271715,-0.75 Z M12.2271715,0.75 C13.400889,0.75 14.2124231,1.62186511 14.1249995,2.8323903 C14.0359519,4.06841975 13.1476765,5.02282851 12.2271715,5.02282851 C11.3058548,5.02282851 10.4168359,4.06820963 10.3294192,2.83344948 C10.2421504,1.60266833 11.0418257,0.75 12.2271715,0.75 Z" id="Path"></path>
                    <path d="M12.2271715,7.58853007 C9.08907503,7.58853007 6.42867926,9.23706977 5.7450144,11.9821801 C5.54690637,12.776517 6.09415856,13.5785078 6.94262806,13.5785078 L17.5121158,13.5785078 C18.3601417,13.5785078 18.905366,12.7780721 18.7102803,11.9844063 C18.0306414,9.21173873 15.3901264,7.58853007 12.2271715,7.58853007 Z M12.4784005,9.09261193 C14.7228992,9.16594061 16.5114526,10.2233378 17.1345349,11.9478962 L17.177,12.078 L7.278,12.078 L7.32027529,11.9544414 C7.97118195,10.1802551 9.88888214,9.08853007 12.2271715,9.08853007 L12.4784005,9.09261193 Z" id="Path"></path>
                    <path d="M4.65033408,0.53285078 C2.92341508,0.53285078 1.6525668,1.89247459 1.77748154,3.65852851 C1.89469368,5.31427746 3.16195197,6.68318486 4.65033408,6.68318486 C6.13801856,6.68318486 7.40385172,5.31494648 7.52311683,3.65950604 C7.64910057,1.91102045 6.37057368,0.53285078 4.65033408,0.53285078 Z M4.65033408,2.03285078 C5.49863799,2.03285078 6.09046711,2.67080447 6.026995,3.55171241 C5.96106172,4.46688889 5.29837661,5.18318486 4.65033408,5.18318486 C4.00161839,5.18318486 3.33845576,4.46682873 3.27374024,3.55265175 C3.21029487,2.65565633 3.79243485,2.03285078 4.65033408,2.03285078 Z" id="Path"></path>
                    <path d="M4.65033408,7.2096882 C5.65095731,7.2096882 6.53540633,7.37372837 7.32799018,7.7368679 C7.7045602,7.90940164 7.86996429,8.3545382 7.69743054,8.73110822 C7.5248968,9.10767824 7.07976024,9.27308233 6.70319022,9.10054858 C6.12311685,8.83477536 5.4486893,8.7096882 4.65033408,8.7096882 C2.93769128,8.7096882 1.52522223,9.46219865 0.959188666,10.6905173 L0.915,10.795 L4.93095768,10.795657 C5.31065345,10.795657 5.62444864,11.0778109 5.67411107,11.4438865 L5.68095768,11.545657 C5.68095768,11.9253528 5.3988038,12.239148 5.03272824,12.2888104 L4.93095768,12.295657 L0.429755011,12.295657 C-0.350596352,12.295657 -0.8535245,11.5592663 -0.67361396,10.8330851 C-0.108630529,8.56639855 2.08164905,7.2096882 4.65033408,7.2096882 Z" id="Path"></path>
                </g>
            </g>
        </g>
    </g>
</svg>