<svg xmlns="http://www.w3.org/2000/svg" width="16" height="16" viewBox="0 0 16 16">
    <g fill="none" fill-rule="evenodd">
        <g fill="#787878">
            <g>
                <g>
                    <g>
                        <g>
                            <path d="M8 1.433c3.625 0 6.567 2.942 6.567 6.567S11.625 14.567 8 14.567 1.433 11.625 1.433 8 4.375 1.433 8 1.433zm0 1.134C5 2.567 2.567 5 2.567 8S5 13.433 8 13.433 13.433 11 13.433 8 11 2.567 8 2.567zm-.635 2.037c.289 0 .527.216.562.495l.005.071-.005 3.102h2.434c.289 0 .527.216.562.496l.004.071c0 .289-.216.527-.495.562l-.071.005h-3c-.29 0-.528-.217-.563-.496l-.004-.071.004-3.669c0-.313.254-.566.567-.566z" transform="translate(-150 -1712) translate(72 1231) translate(0 370) translate(0 61) translate(78 50)"/>
                        </g>
                    </g>
                </g>
            </g>
        </g>
    </g>
</svg>
