<?xml version="1.0" encoding="UTF-8"?>
<svg width="18px" height="20px" viewBox="0 0 18 20" version="1.1" xmlns="http://www.w3.org/2000/svg" xmlns:xlink="http://www.w3.org/1999/xlink">
    <title>Combined Shape</title>
    <g id="Symbols" stroke="none" stroke-width="1" fill="none" fill-rule="evenodd">
        <path d="M9.00634466,10.9383257 C11.0678791,10.9383257 13.0833086,11.5197164 14.6775057,12.5823247 C16.460414,13.7707179 17.6164537,15.4817334 17.9842716,17.5199169 C18.1529319,18.4548255 17.5648631,19.2947737 16.6638821,19.3726488 L16.5264436,19.3785311 L1.48624571,19.3785311 C0.508816049,19.3785311 -0.148230634,18.5014731 0.0288381246,17.5199549 C0.396427085,15.4817933 1.55234866,13.7707471 3.33522599,12.582332 C4.9293679,11.5197226 6.94479741,10.9383257 9.00634466,10.9383257 Z M9.00634466,12.5420775 C7.25917412,12.5420775 5.55242257,13.0317972 4.22473943,13.9167928 C2.88540794,14.8095529 2.00467504,16.0450419 1.66453994,17.5244241 L1.6124808,17.774 L16.3994808,17.774 L16.348554,17.524469 C16.0295248,16.1375402 15.2353972,14.9649575 14.033756,14.0881861 L13.7880143,13.9168002 C12.46027,13.0317954 10.7535108,12.5420775 9.00634466,12.5420775 Z M9.00634466,1.60760294e-13 C11.7475744,1.60760294e-13 13.7706527,2.20124074 13.566075,4.96303969 C13.3688959,7.62244218 11.3303265,9.80749611 9.00634466,9.80749611 C6.68060648,9.80749611 4.64009228,7.62048166 4.44653157,4.96191268 C4.24387714,2.1754143 6.2479544,1.60760294e-13 9.00634466,1.60760294e-13 Z M9.00634466,1.6037518 C7.18049177,1.6037518 5.91090566,2.98722776 6.04605422,4.84552052 C6.17943336,6.67749162 7.54905922,8.20374431 9.00634466,8.20374431 C10.4622961,8.20374431 11.8307484,6.67824747 11.9667092,4.84451213 C12.1025187,3.01108341 10.8135715,1.6037518 9.00634466,1.6037518 Z" id="Combined-Shape" fill="#1A4BB7"></path>
    </g>
</svg>